<?xml version="1.0" encoding="UTF-8"?>
<svg xmlns="http://www.w3.org/2000/svg" xmlns:xlink="http://www.w3.org/1999/xlink" width="64pt" height="64pt" viewBox="0 0 64 64" version="1.1">
<g id="surface1">
<path style="fill:none;stroke-width:2;stroke-linecap:butt;stroke-linejoin:miter;stroke:rgb(0%,52.54902%,96.862745%);stroke-opacity:1;stroke-miterlimit:10;" d="M 39.365766 1.156563 L 21.628986 11.39638 L 21.628986 31.880716 L 39.365766 42.134637 L 57.109567 31.880716 L 57.109567 11.39638 Z M 39.365766 1.156563 " transform="matrix(0.556312,0,0,0.830856,0.061281,0)"/>
<path style=" stroke:none;fill-rule:nonzero;fill:rgb(0%,52.54902%,96.862745%);fill-opacity:1;" d="M 3.347656 30.058594 L 0.0625 32.894531 L 0.0625 38.566406 L 3.347656 41.402344 L 6.640625 38.566406 L 6.640625 32.894531 Z M 3.347656 30.058594 "/>
<path style=" stroke:none;fill-rule:nonzero;fill:rgb(0%,52.54902%,96.862745%);fill-opacity:1;" d="M 17.644531 43.09375 L 20.382812 45.449219 L 20.382812 50.160156 L 17.644531 52.519531 L 14.914062 50.164062 L 14.914062 45.449219 L 17.644531 43.089844 M 17.644531 42.132812 L 14.359375 44.972656 L 14.359375 50.644531 L 17.644531 53.480469 L 20.9375 50.644531 L 20.9375 44.972656 Z M 17.644531 42.132812 "/>
<path style=" stroke:none;fill-rule:nonzero;fill:rgb(0%,52.54902%,96.862745%);fill-opacity:1;" d="M 12.09375 29.152344 L 16.472656 32.9375 L 16.472656 40.488281 L 12.09375 44.265625 L 7.710938 40.488281 L 7.710938 32.9375 L 12.09375 29.152344 M 12.09375 28.195312 L 7.152344 32.457031 L 7.152344 40.96875 L 12.09375 45.222656 L 17.027344 40.96875 L 17.027344 32.457031 Z M 12.09375 28.195312 "/>
<path style=" stroke:none;fill-rule:nonzero;fill:rgb(0%,52.54902%,96.862745%);fill-opacity:1;" d="M 6.164062 15.53125 L 10.546875 19.316406 L 10.546875 26.867188 L 6.164062 30.640625 L 1.785156 26.867188 L 1.785156 19.316406 L 6.164062 15.53125 M 6.164062 14.574219 L 1.230469 18.835938 L 1.230469 27.347656 L 6.164062 31.601562 L 11.101562 27.347656 L 11.101562 18.835938 Z M 6.164062 14.574219 "/>
<path style="fill:none;stroke-width:2;stroke-linecap:butt;stroke-linejoin:miter;stroke:rgb(0%,52.54902%,96.862745%);stroke-opacity:1;stroke-miterlimit:10;" d="M 77.858651 1.156563 L 60.114849 11.39638 L 60.114849 31.880716 L 77.858651 42.134637 L 95.609475 31.880716 L 95.609475 11.39638 Z M 77.858651 1.156563 " transform="matrix(0.556312,0,0,0.830856,0.061281,0)"/>
<path style="fill:none;stroke-width:1;stroke-linecap:butt;stroke-linejoin:round;stroke:rgb(0%,52.54902%,96.862745%);stroke-opacity:1;stroke-miterlimit:4;" d="M 75.176367 32.238028 L 75.176367 28.175952 " transform="matrix(0.556312,0,0,0.830856,0.061281,0)"/>
<path style="fill:none;stroke-width:1;stroke-linecap:butt;stroke-linejoin:round;stroke:rgb(0%,52.54902%,96.862745%);stroke-opacity:1;stroke-miterlimit:4;" d="M 85.18227 28.114833 L 89.065263 33.479218 L 83.033634 33.215935 " transform="matrix(0.556312,0,0,0.830856,0.061281,0)"/>
<path style="fill:none;stroke-width:1;stroke-linecap:butt;stroke-linejoin:round;stroke:rgb(0%,52.54902%,96.862745%);stroke-opacity:1;stroke-miterlimit:4;" d="M 85.18227 28.114833 C 84.353711 27.047597 83.630477 25.905139 83.012569 24.70156 C 82.429769 23.869399 82.422747 22.764552 82.984482 21.922987 C 83.258328 21.499855 83.679629 21.043811 84.002627 20.568962 C 84.845229 19.337175 85.203335 17.832702 84.992685 16.356439 C 84.915446 15.402039 84.669687 14.466445 84.269451 13.596672 C 83.012569 11.053173 80.077504 9.96243 76.538574 9.628625 C 74.123114 9.473476 71.69361 9.464073 69.27815 9.595715 L 69.383475 32.797504 L 71.890218 33.67668 L 73.933528 33.201831 " transform="matrix(0.556312,0,0,0.830856,0.061281,0)"/>
<path style="fill:none;stroke-width:1;stroke-linecap:butt;stroke-linejoin:round;stroke:rgb(0%,52.54902%,96.862745%);stroke-opacity:1;stroke-miterlimit:4;" d="M 81.832926 32.557729 L 79.206815 28.801248 " transform="matrix(0.556312,0,0,0.830856,0.061281,0)"/>
<path style="fill:none;stroke-width:1;stroke-linecap:butt;stroke-linejoin:round;stroke:rgb(0%,52.54902%,96.862745%);stroke-opacity:1;stroke-miterlimit:4;" d="M 83.033634 33.215935 C 82.556159 33.192428 82.106771 32.952653 81.832926 32.557729 " transform="matrix(0.556312,0,0,0.830856,0.061281,0)"/>
<path style="fill:none;stroke-width:1;stroke-linecap:butt;stroke-linejoin:round;stroke:rgb(0%,52.54902%,96.862745%);stroke-opacity:1;stroke-miterlimit:4;" d="M 75.176367 28.175952 C 75.176367 27.719909 75.176367 27.235657 75.204454 26.751404 C 75.246584 26.107302 75.344887 25.467901 75.73108 25.378573 C 75.843427 25.359767 75.955774 25.364469 76.061099 25.397379 C 76.664964 25.632453 77.184569 26.055586 77.535654 26.596256 C 78.132497 27.296776 78.68721 28.034908 79.199793 28.801248 " transform="matrix(0.556312,0,0,0.830856,0.061281,0)"/>
<path style="fill:none;stroke-width:1;stroke-linecap:butt;stroke-linejoin:round;stroke:rgb(0%,52.54902%,96.862745%);stroke-opacity:1;stroke-miterlimit:4;" d="M 74.635697 32.97616 L 73.933528 33.206532 " transform="matrix(0.556312,0,0,0.830856,0.061281,0)"/>
<path style="fill:none;stroke-width:1;stroke-linecap:butt;stroke-linejoin:round;stroke:rgb(0%,52.54902%,96.862745%);stroke-opacity:1;stroke-miterlimit:4;" d="M 74.635697 32.97616 C 74.797196 32.924444 74.93763 32.825713 75.035933 32.68937 C 75.127215 32.557729 75.176367 32.397878 75.176367 32.238028 " transform="matrix(0.556312,0,0,0.830856,0.061281,0)"/>
<path style="fill:none;stroke-width:1;stroke-linecap:butt;stroke-linejoin:round;stroke:rgb(0%,52.54902%,96.862745%);stroke-opacity:1;stroke-miterlimit:4;" d="M 73.217316 22.548284 L 71.890218 33.681382 " transform="matrix(0.556312,0,0,0.830856,0.061281,0)"/>
<path style="fill:none;stroke-width:1;stroke-linecap:butt;stroke-linejoin:round;stroke:rgb(0%,52.54902%,96.862745%);stroke-opacity:1;stroke-miterlimit:4;" d="M 73.238381 22.6 C 70.549075 20.075307 69.228998 15.740545 69.27815 9.600416 " transform="matrix(0.556312,0,0,0.830856,0.061281,0)"/>
<path style="fill:none;stroke-width:1;stroke-linecap:butt;stroke-linejoin:round;stroke:rgb(0%,52.54902%,96.862745%);stroke-opacity:1;stroke-miterlimit:4;" d="M 73.203273 22.590597 C 74.460155 22.712836 75.710015 22.924402 76.93881 23.215894 C 77.760347 23.446266 78.51869 23.855295 79.157663 24.41477 C 79.340227 24.579322 79.515769 24.739172 79.712376 24.950739 C 80.35135 25.608945 81.264169 26.77021 82.492964 28.072519 C 83.328545 28.951696 84.311581 29.901394 89.058241 33.469815 " transform="matrix(0.556312,0,0,0.830856,0.061281,0)"/>
<path style="fill:none;stroke-width:1;stroke-linecap:butt;stroke-linejoin:round;stroke:rgb(0%,52.54902%,96.862745%);stroke-opacity:1;stroke-miterlimit:4;" d="M 73.217316 22.609403 C 74.705914 22.463657 76.180468 22.190972 77.626935 21.800749 C 78.911904 21.401124 81.151822 20.53135 81.825904 18.984564 C 81.882077 18.871729 81.917186 18.74949 81.952294 18.631954 C 82.113793 17.818598 82.113793 16.981735 81.959316 16.163678 C 81.832926 14.551071 80.646261 13.215852 79.052338 12.900853 C 78.202714 12.675182 77.332025 12.543541 76.454314 12.505929 C 74.663784 12.416601 73.835225 12.778615 73.715856 14.687414 C 73.687769 15.298606 73.701813 15.909798 73.757986 16.516289 C 73.765008 16.948825 73.870333 17.376659 74.052897 17.766882 C 74.088005 17.823299 74.130136 17.879717 74.165244 17.931433 C 74.593567 18.439193 75.141258 18.829416 75.766189 19.050385 C 76.236642 19.059788 76.707095 19.00337 77.163504 18.881132 C 77.219678 18.862326 77.275851 18.848221 77.332025 18.838819 C 77.865673 18.735386 78.336126 18.434492 78.659123 18.001956 C 78.701253 17.940836 78.72934 17.88912 78.77147 17.828001 C 78.841687 17.719867 78.897861 17.60233 78.918926 17.47539 C 79.066381 16.887706 79.052338 16.276514 78.890839 15.698232 C 78.848709 15.575993 78.778492 15.467859 78.694232 15.37383 C 78.511668 15.199875 78.308039 15.068234 78.076323 14.974204 L 78.013128 14.941294 C 77.416285 14.748534 76.791355 14.668608 76.166425 14.710922 L 76.159403 14.710922 C 75.829384 14.692116 75.506386 14.762638 75.225519 14.922488 C 74.755066 15.237487 74.69187 15.590098 74.698892 16.48808 C 74.698892 17.202705 74.769109 17.912628 74.916564 18.608446 " transform="matrix(0.556312,0,0,0.830856,0.061281,0)"/>
<path style="fill-rule:nonzero;fill:rgb(100%,100%,100%);fill-opacity:1;stroke-width:3;stroke-linecap:butt;stroke-linejoin:round;stroke:rgb(100%,100%,100%);stroke-opacity:1;stroke-miterlimit:4;" d="M 71.784892 35.449137 L 74.031832 29.6005 L 74.867413 29.6005 L 77.261808 35.444435 L 76.377075 35.444435 L 75.702993 33.67668 L 73.252425 33.67668 L 72.60643 35.449137 Z M 73.477119 33.051384 L 75.457234 33.051384 L 74.846348 31.429374 C 74.663784 30.94042 74.52335 30.536093 74.432068 30.221094 C 74.35483 30.597213 74.249504 30.973331 74.116092 31.335345 Z M 73.477119 33.051384 " transform="matrix(0.556312,0,0,0.830856,0.061281,0)"/>
<path style="fill-rule:nonzero;fill:rgb(100%,100%,100%);fill-opacity:1;stroke-width:3;stroke-linecap:butt;stroke-linejoin:round;stroke:rgb(100%,100%,100%);stroke-opacity:1;stroke-miterlimit:4;" d="M 77.879716 35.449137 L 77.879716 29.6005 L 80.084526 29.6005 C 80.379437 29.595798 80.674347 29.614604 80.969258 29.656917 C 81.229061 29.694529 81.47482 29.783857 81.692492 29.929603 C 81.896121 30.075349 82.05762 30.268109 82.162945 30.49378 C 82.478921 31.180196 82.359552 31.98885 81.861012 32.553027 C 81.383538 32.952653 80.765629 33.13601 80.147721 33.07019 L 78.64508 33.07019 L 78.64508 35.449137 Z M 78.652102 32.383774 L 80.161764 32.383774 C 80.540935 32.416684 80.913085 32.317953 81.229061 32.101685 C 81.439711 31.899522 81.55908 31.612732 81.545037 31.316539 C 81.545037 31.095569 81.481841 30.8746 81.355451 30.691242 C 81.236082 30.521989 81.067562 30.399751 80.870955 30.343333 C 80.632217 30.30102 80.386458 30.282214 80.147721 30.291617 L 78.64508 30.291617 Z M 78.652102 32.383774 " transform="matrix(0.556312,0,0,0.830856,0.061281,0)"/>
<path style="fill-rule:nonzero;fill:rgb(100%,100%,100%);fill-opacity:1;stroke-width:3;stroke-linecap:butt;stroke-linejoin:round;stroke:rgb(100%,100%,100%);stroke-opacity:1;stroke-miterlimit:4;" d="M 83.454935 35.449137 L 83.454935 29.6005 L 84.227321 29.6005 L 84.227321 35.449137 Z M 83.454935 35.449137 " transform="matrix(0.556312,0,0,0.830856,0.061281,0)"/>
<path style=" stroke:none;fill-rule:nonzero;fill:rgb(100%,100%,100%);fill-opacity:1;" d="M 40.210938 27.324219 L 46.703125 27.324219 L 46.703125 30.476562 L 40.210938 30.476562 Z M 40.210938 27.324219 "/>
<path style=" stroke:none;fill-rule:nonzero;fill:rgb(100%,100%,100%);fill-opacity:1;" d="M 41.585938 23.480469 L 43.042969 23.480469 L 43.042969 25.652344 L 41.585938 25.652344 Z M 41.585938 23.480469 "/>
<path style="fill-rule:nonzero;fill:rgb(0%,52.54902%,96.862745%);fill-opacity:1;stroke-width:0.25;stroke-linecap:butt;stroke-linejoin:miter;stroke:rgb(0%,52.54902%,96.862745%);stroke-opacity:1;stroke-miterlimit:10;" d="M 71.784892 35.449137 L 74.031832 29.6005 L 74.867413 29.6005 L 77.261808 35.444435 L 76.377075 35.444435 L 75.702993 33.67668 L 73.252425 33.67668 L 72.60643 35.449137 Z M 73.477119 33.051384 L 75.457234 33.051384 L 74.846348 31.429374 C 74.663784 30.94042 74.52335 30.536093 74.432068 30.221094 C 74.35483 30.597213 74.249504 30.973331 74.116092 31.335345 Z M 73.477119 33.051384 " transform="matrix(0.556312,0,0,0.830856,0.061281,0)"/>
<path style="fill-rule:nonzero;fill:rgb(0%,52.54902%,96.862745%);fill-opacity:1;stroke-width:0.25;stroke-linecap:butt;stroke-linejoin:miter;stroke:rgb(0%,52.54902%,96.862745%);stroke-opacity:1;stroke-miterlimit:10;" d="M 77.879716 35.449137 L 77.879716 29.6005 L 80.084526 29.6005 C 80.379437 29.595798 80.674347 29.614604 80.969258 29.656917 C 81.229061 29.694529 81.47482 29.783857 81.692492 29.929603 C 81.896121 30.075349 82.05762 30.268109 82.162945 30.49378 C 82.478921 31.180196 82.359552 31.98885 81.861012 32.553027 C 81.383538 32.952653 80.765629 33.13601 80.147721 33.07019 L 78.64508 33.07019 L 78.64508 35.449137 Z M 78.652102 32.383774 L 80.161764 32.383774 C 80.540935 32.416684 80.913085 32.317953 81.229061 32.101685 C 81.439711 31.899522 81.55908 31.612732 81.545037 31.316539 C 81.545037 31.095569 81.481841 30.8746 81.355451 30.691242 C 81.236082 30.521989 81.067562 30.399751 80.870955 30.343333 C 80.632217 30.30102 80.386458 30.282214 80.147721 30.291617 L 78.64508 30.291617 Z M 78.652102 32.383774 " transform="matrix(0.556312,0,0,0.830856,0.061281,0)"/>
<path style="fill-rule:nonzero;fill:rgb(0%,52.54902%,96.862745%);fill-opacity:1;stroke-width:0.25;stroke-linecap:butt;stroke-linejoin:miter;stroke:rgb(0%,52.54902%,96.862745%);stroke-opacity:1;stroke-miterlimit:10;" d="M 83.454935 35.449137 L 83.454935 29.6005 L 84.227321 29.6005 L 84.227321 35.449137 Z M 83.454935 35.449137 " transform="matrix(0.556312,0,0,0.830856,0.061281,0)"/>
<path style="fill:none;stroke-width:0.75;stroke-linecap:butt;stroke-linejoin:miter;stroke:rgb(0%,52.54902%,96.862745%);stroke-opacity:1;stroke-miterlimit:10;" d="M 34.211848 12.51063 C 34.211848 12.148617 34.071414 11.805409 33.811612 11.546828 C 33.362224 11.104889 32.660055 11.04377 32.133429 11.401082 C 31.613824 11.753693 31.410195 12.426004 31.655954 13.013688 C 31.901713 13.596672 32.519621 13.925775 33.13753 13.803537 C 33.76246 13.681298 34.211848 13.140628 34.211848 12.51063 " transform="matrix(0.556312,0,0,0.830856,0.061281,0)"/>
<path style="fill:none;stroke-width:0.75;stroke-linecap:butt;stroke-linejoin:miter;stroke:rgb(0%,52.54902%,96.862745%);stroke-opacity:1;stroke-miterlimit:10;" d="M 34.211848 30.78057 C 34.211848 30.423258 34.071414 30.075349 33.811612 29.821469 C 33.284985 29.294904 32.428339 29.294904 31.901713 29.821469 C 31.375086 30.348034 31.375086 31.203703 31.901713 31.730269 C 32.147472 31.98885 32.491535 32.134596 32.856662 32.134596 C 33.214768 32.134596 33.558831 31.98885 33.811612 31.730269 C 34.064392 31.48109 34.204826 31.137883 34.211848 30.78057 " transform="matrix(0.556312,0,0,0.830856,0.061281,0)"/>
<path style="fill:none;stroke-width:1;stroke-linecap:butt;stroke-linejoin:round;stroke:rgb(0%,52.54902%,96.862745%);stroke-opacity:1;stroke-miterlimit:4;" d="M 36.234094 12.51063 C 36.234094 12.06399 36.149833 11.626753 35.981313 11.217724 C 35.812792 10.803994 35.560012 10.432578 35.244036 10.117579 C 34.92806 9.80258 34.562932 9.553401 34.155674 9.379447 C 33.741395 9.214895 33.30605 9.130268 32.856662 9.125567 C 32.414296 9.125567 31.978951 9.214895 31.564672 9.379447 C 31.157414 9.5487 30.785265 9.80258 30.469289 10.117579 C 30.153313 10.427876 29.900532 10.803994 29.739033 11.217724 C 29.563491 11.626753 29.479231 12.06399 29.479231 12.51063 " transform="matrix(0.556312,0,0,0.830856,0.061281,0)"/>
<path style="fill:none;stroke-width:1;stroke-linecap:butt;stroke-linejoin:round;stroke:rgb(0%,52.54902%,96.862745%);stroke-opacity:1;stroke-miterlimit:4;" d="M 29.479231 30.78057 C 29.479231 31.227211 29.563491 31.664448 29.739033 32.073476 C 29.900532 32.487206 30.153313 32.858623 30.469289 33.164219 C 30.778243 33.48392 31.150392 33.733098 31.564672 33.902351 C 31.97193 34.076306 32.414296 34.165634 32.856662 34.165634 C 33.30605 34.165634 33.741395 34.076306 34.148653 33.902351 C 34.562932 33.733098 34.935081 33.48392 35.244036 33.164219 C 35.883009 32.538923 36.241115 31.678552 36.234094 30.78057 " transform="matrix(0.556312,0,0,0.830856,0.061281,0)"/>
<path style="fill:none;stroke-width:1;stroke-linecap:butt;stroke-linejoin:round;stroke:rgb(0%,52.54902%,96.862745%);stroke-opacity:1;stroke-miterlimit:4;" d="M 29.479231 12.51063 L 29.479231 30.78057 " transform="matrix(0.556312,0,0,0.830856,0.061281,0)"/>
<path style="fill:none;stroke-width:1;stroke-linecap:butt;stroke-linejoin:round;stroke:rgb(0%,52.54902%,96.862745%);stroke-opacity:1;stroke-miterlimit:4;" d="M 36.234094 30.78057 L 36.234094 12.51063 " transform="matrix(0.556312,0,0,0.830856,0.061281,0)"/>
<path style="fill:none;stroke-width:0.75;stroke-linecap:butt;stroke-linejoin:miter;stroke:rgb(0%,52.54902%,96.862745%);stroke-opacity:1;stroke-miterlimit:10;" d="M 46.513843 14.898981 C 46.492777 14.541669 46.331279 14.207864 46.064455 13.97279 C 45.790609 13.737716 45.439525 13.615478 45.081418 13.638985 C 44.723312 13.667194 44.393293 13.836447 44.154556 14.104431 C 43.915819 14.372415 43.79645 14.725026 43.817515 15.082338 C 43.852623 15.439651 44.014122 15.773456 44.287968 16.013231 C 44.554792 16.248305 44.905876 16.365842 45.263982 16.332931 C 45.622088 16.314125 45.959129 16.149574 46.190845 15.881589 C 46.429582 15.608904 46.548951 15.256293 46.513843 14.898981 " transform="matrix(0.556312,0,0,0.830856,0.061281,0)"/>
<path style="fill:none;stroke-width:0.75;stroke-linecap:butt;stroke-linejoin:miter;stroke:rgb(0%,52.54902%,96.862745%);stroke-opacity:1;stroke-miterlimit:10;" d="M 47.237076 25.7829 C 47.20899 25.425588 47.047491 25.091783 46.780667 24.852008 C 46.506821 24.621635 46.155737 24.499397 45.797631 24.518203 C 45.053332 24.574621 44.491597 25.218723 44.533727 25.966258 C 44.561814 26.318869 44.723312 26.647972 44.990137 26.883046 C 45.263982 27.127523 45.622088 27.24506 45.980194 27.216851 C 46.724493 27.165134 47.279206 26.525734 47.237076 25.7829 " transform="matrix(0.556312,0,0,0.830856,0.061281,0)"/>
<path style="fill:none;stroke-width:1;stroke-linecap:butt;stroke-linejoin:round;stroke:rgb(0%,52.54902%,96.862745%);stroke-opacity:1;stroke-miterlimit:4;" d="M 48.550132 14.772041 C 48.515023 14.330102 48.395655 13.897566 48.199047 13.497941 C 48.009462 13.098315 47.735616 12.736301 47.391553 12.449511 C 47.061534 12.153318 46.66832 11.932349 46.25404 11.791304 C 45.832739 11.65026 45.390373 11.589141 44.948006 11.622051 C 44.056252 11.68317 43.220672 12.092199 42.63085 12.759809 C 42.041028 13.436821 41.739096 14.320699 41.802291 15.21398 " transform="matrix(0.556312,0,0,0.830856,0.061281,0)"/>
<path style="fill:none;stroke-width:1;stroke-linecap:butt;stroke-linejoin:round;stroke:rgb(0%,52.54902%,96.862745%);stroke-opacity:1;stroke-miterlimit:4;" d="M 42.518503 26.093198 C 42.574676 26.986478 42.988956 27.81864 43.656016 28.406324 C 44.330098 29.008113 45.214831 29.309008 46.113606 29.247889 C 47.005361 29.18677 47.840941 28.777741 48.423741 28.100728 C 49.020585 27.428417 49.322517 26.549241 49.266344 25.65596 " transform="matrix(0.556312,0,0,0.830856,0.061281,0)"/>
<path style="fill:none;stroke-width:1;stroke-linecap:butt;stroke-linejoin:round;stroke:rgb(0%,52.54902%,96.862745%);stroke-opacity:1;stroke-miterlimit:4;" d="M 41.802291 15.21398 L 42.518503 26.093198 " transform="matrix(0.556312,0,0,0.830856,0.061281,0)"/>
<path style="fill:none;stroke-width:1;stroke-linecap:butt;stroke-linejoin:round;stroke:rgb(0%,52.54902%,96.862745%);stroke-opacity:1;stroke-miterlimit:4;" d="M 49.266344 25.651259 L 48.550132 14.772041 " transform="matrix(0.556312,0,0,0.830856,0.061281,0)"/>
<path style="fill:none;stroke-width:1;stroke-linecap:butt;stroke-linejoin:round;stroke:rgb(0%,52.54902%,96.862745%);stroke-opacity:1;stroke-miterlimit:4;" d="M 33.523723 9.196089 L 33.537766 9.196089 " transform="matrix(0.556312,0,0,0.830856,0.061281,0)"/>
<path style="fill:none;stroke-width:1;stroke-linecap:butt;stroke-linejoin:round;stroke:rgb(0%,52.54902%,96.862745%);stroke-opacity:1;stroke-miterlimit:4;" d="M 34.050349 33.944664 L 47.082599 29.036322 " transform="matrix(0.556312,0,0,0.830856,0.061281,0)"/>
<path style="fill:none;stroke-width:1;stroke-linecap:butt;stroke-linejoin:round;stroke:rgb(0%,52.54902%,96.862745%);stroke-opacity:1;stroke-miterlimit:4;" d="M 31.669997 27.621178 C 31.024002 27.856252 30.462267 28.288787 30.069053 28.852965 C 29.68286 29.421843 29.472209 30.094155 29.465188 30.78057 " transform="matrix(0.556312,0,0,0.830856,0.061281,0)"/>
<path style="fill:none;stroke-width:1;stroke-linecap:butt;stroke-linejoin:round;stroke:rgb(0%,52.54902%,96.862745%);stroke-opacity:1;stroke-miterlimit:4;" d="M 48.550132 14.772041 C 48.655457 16.384648 47.602204 17.842105 46.04339 18.255835 C 45.54485 18.392178 45.018223 18.410984 44.50564 18.307552 " transform="matrix(0.556312,0,0,0.830856,0.061281,0)"/>
<path style="fill:none;stroke-width:1;stroke-linecap:butt;stroke-linejoin:round;stroke:rgb(0%,52.54902%,96.862745%);stroke-opacity:1;stroke-miterlimit:4;" d="M 49.266344 25.651259 C 49.189105 24.579322 48.613327 23.610818 47.714551 23.023133 C 47.272185 22.741044 46.766623 22.56709 46.239997 22.510672 C 45.720392 22.449553 45.186744 22.515374 44.695226 22.708134 " transform="matrix(0.556312,0,0,0.830856,0.061281,0)"/>
<path style="fill:none;stroke-width:1;stroke-linecap:butt;stroke-linejoin:round;stroke:rgb(0%,52.54902%,96.862745%);stroke-opacity:1;stroke-miterlimit:4;" d="M 29.479231 12.51063 C 29.479231 13.286374 29.746055 14.03861 30.244595 14.6404 C 30.736113 15.242189 31.424238 15.66062 32.18258 15.82047 " transform="matrix(0.556312,0,0,0.830856,0.061281,0)"/>
<path style="fill:none;stroke-width:1;stroke-linecap:butt;stroke-linejoin:round;stroke:rgb(0%,52.54902%,96.862745%);stroke-opacity:1;stroke-miterlimit:4;" d="M 33.523723 9.196089 L 45.839761 11.678469 " transform="matrix(0.556312,0,0,0.830856,0.061281,0)"/>
<path style="fill:none;stroke-width:1;stroke-linecap:butt;stroke-linejoin:round;stroke:rgb(0%,52.54902%,96.862745%);stroke-opacity:1;stroke-miterlimit:4;" d="M 32.18258 15.82047 L 44.50564 18.307552 " transform="matrix(0.556312,0,0,0.830856,0.061281,0)"/>
<path style="fill:none;stroke-width:1;stroke-linecap:butt;stroke-linejoin:round;stroke:rgb(0%,52.54902%,96.862745%);stroke-opacity:1;stroke-miterlimit:4;" d="M 44.702247 22.712836 L 31.669997 27.621178 " transform="matrix(0.556312,0,0,0.830856,0.061281,0)"/>
<path style=" stroke:none;fill-rule:nonzero;fill:rgb(96.862745%,0%,52.54902%);fill-opacity:1;" d="M 37.472656 50.695312 L 32.648438 50.695312 L 32.648438 51.394531 L 35.78125 51.394531 L 35.78125 52.953125 C 35.78125 53.726562 35.515625 54.445312 35.082031 54.863281 C 34.71875 55.207031 34.328125 55.476562 33.914062 55.660156 C 32.660156 56.210938 31.308594 55.917969 30.210938 54.863281 C 29.996094 54.660156 29.816406 54.375 29.695312 54.042969 C 29.574219 53.707031 29.511719 53.332031 29.507812 52.949219 L 29.507812 48.5625 C 29.515625 47.3125 30.195312 46.300781 31.03125 46.289062 L 34.246094 46.289062 C 34.753906 46.296875 35.238281 45.996094 35.59375 45.457031 C 35.773438 45.195312 35.910156 44.878906 36.003906 44.535156 C 36.101562 44.191406 36.148438 43.824219 36.152344 43.453125 L 36.152344 41.292969 L 37.472656 41.292969 C 37.886719 41.300781 38.269531 41.640625 38.472656 42.183594 C 39.347656 44.558594 39.347656 47.4375 38.472656 49.8125 C 38.273438 50.355469 37.886719 50.695312 37.472656 50.695312 Z M 37.472656 50.695312 "/>
<path style=" stroke:none;fill-rule:nonzero;fill:rgb(100%,100%,100%);fill-opacity:1;" d="M 34.972656 53.457031 C 34.96875 53.0625 34.78125 52.722656 34.519531 52.648438 C 34.257812 52.574219 34 52.785156 33.898438 53.148438 C 33.800781 53.515625 33.886719 53.9375 34.105469 54.15625 C 34.328125 54.375 34.621094 54.332031 34.808594 54.050781 C 34.914062 53.894531 34.972656 53.679688 34.972656 53.457031 "/>
<path style="fill:none;stroke-width:2;stroke-linecap:butt;stroke-linejoin:miter;stroke:rgb(96.862745%,0%,52.54902%);stroke-opacity:1;stroke-miterlimit:10;" d="M 58.563057 34.88496 L 40.812233 45.13418 L 40.812233 65.623217 L 58.563057 75.872437 L 76.306858 65.623217 L 76.306858 45.13418 Z M 58.563057 34.88496 " transform="matrix(0.556312,0,0,0.830856,0.061281,0)"/>
<path style=" stroke:none;fill-rule:nonzero;fill:rgb(0%,52.54902%,96.862745%);fill-opacity:1;" d="M 54.066406 28.984375 L 44.191406 37.5 L 44.191406 54.523438 L 54.066406 63.039062 L 63.9375 54.523438 L 63.9375 37.5 Z M 54.066406 28.984375 "/>
<path style=" stroke:none;fill-rule:nonzero;fill:rgb(100%,100%,100%);fill-opacity:1;" d="M 58.523438 42.632812 C 58.394531 42.84375 58.214844 42.96875 58.023438 42.976562 C 57.832031 42.984375 57.648438 42.875 57.511719 42.675781 L 56.433594 41.082031 C 56.296875 40.878906 56.21875 40.605469 56.222656 40.316406 C 56.226562 40.03125 56.308594 39.757812 56.449219 39.566406 L 58.09375 37.292969 C 57.867188 37.179688 57.632812 37.109375 57.394531 37.089844 C 56.671875 37.023438 55.960938 37.402344 55.429688 38.136719 C 55.253906 38.378906 55.101562 38.65625 54.972656 38.957031 C 54.847656 39.261719 54.75 39.585938 54.683594 39.925781 C 54.613281 40.269531 54.578125 40.621094 54.570312 40.976562 C 54.566406 41.335938 54.59375 41.691406 54.652344 42.039062 L 48.789062 50.890625 C 48.644531 51.109375 48.53125 51.371094 48.449219 51.660156 C 48.371094 51.945312 48.332031 52.25 48.335938 52.558594 C 48.335938 52.871094 48.375 53.175781 48.457031 53.460938 C 48.621094 54.035156 48.929688 54.492188 49.316406 54.726562 C 49.507812 54.84375 49.710938 54.902344 49.917969 54.898438 C 50.128906 54.898438 50.332031 54.835938 50.523438 54.710938 C 50.714844 54.589844 50.886719 54.414062 51.03125 54.195312 L 56.890625 45.34375 C 57.121094 45.425781 57.363281 45.460938 57.601562 45.445312 C 57.839844 45.4375 58.074219 45.378906 58.304688 45.273438 C 58.53125 45.164062 58.75 45.015625 58.949219 44.824219 C 59.148438 44.632812 59.332031 44.398438 59.492188 44.132812 C 59.652344 43.871094 59.785156 43.574219 59.894531 43.257812 C 60 42.9375 60.078125 42.601562 60.125 42.253906 C 60.171875 41.902344 60.1875 41.542969 60.171875 41.1875 C 60.15625 40.832031 60.105469 40.480469 60.027344 40.144531 Z M 58.523438 42.632812 "/>
<path style=" stroke:none;fill-rule:nonzero;fill:rgb(0%,52.54902%,96.862745%);fill-opacity:1;" d="M 50.78125 52.546875 C 50.78125 52.375 50.757812 52.207031 50.714844 52.050781 C 50.625 51.730469 50.457031 51.472656 50.242188 51.34375 C 49.796875 51.070312 49.285156 51.386719 49.097656 52.050781 C 49.054688 52.207031 49.035156 52.375 49.03125 52.546875 C 49.035156 52.71875 49.054688 52.890625 49.097656 53.050781 C 49.144531 53.207031 49.210938 53.351562 49.292969 53.472656 C 49.539062 53.847656 49.917969 53.957031 50.242188 53.757812 C 50.347656 53.691406 50.445312 53.59375 50.527344 53.472656 C 50.605469 53.351562 50.671875 53.207031 50.714844 53.050781 C 50.757812 52.890625 50.78125 52.71875 50.78125 52.546875 "/>
<path style=" stroke:none;fill-rule:nonzero;fill:rgb(100%,100%,100%);fill-opacity:1;" d="M 52.925781 43.320312 L 51.117188 40.644531 L 50.992188 39.503906 L 48.890625 37.359375 L 48.273438 38.292969 L 49.730469 41.410156 L 50.496094 41.578125 L 52.308594 44.253906 Z M 52.925781 43.320312 "/>
<path style=" stroke:none;fill-rule:nonzero;fill:rgb(100%,100%,100%);fill-opacity:1;" d="M 59.019531 55.136719 C 58.886719 55.335938 58.710938 55.449219 58.523438 55.449219 C 58.335938 55.449219 58.15625 55.339844 58.023438 55.144531 L 54.609375 50.105469 L 56.867188 46.695312 L 60.28125 51.734375 C 60.414062 51.929688 60.488281 52.195312 60.488281 52.472656 C 60.492188 52.75 60.417969 53.015625 60.285156 53.214844 Z M 59.019531 55.136719 "/>
<path style="fill:none;stroke-width:1;stroke-linecap:round;stroke-linejoin:miter;stroke:rgb(0%,52.54902%,96.862745%);stroke-opacity:1;stroke-miterlimit:10;" d="M 98.79732 59.233909 L 104.569147 65.002622 " transform="matrix(0.556312,0,0,0.830856,0.061281,0)"/>
<path style="fill:none;stroke-width:1.5;stroke-linecap:round;stroke-linejoin:miter;stroke:rgb(0%,52.54902%,96.862745%);stroke-opacity:1;stroke-miterlimit:10;" d="M 100.735306 57.07123 L 106.745869 63.079718 " transform="matrix(0.556312,0,0,0.830856,0.061281,0)"/>
<path style=" stroke:none;fill-rule:nonzero;fill:rgb(96.862745%,0%,52.54902%);fill-opacity:1;" d="M 27.820312 41.328125 L 32.636719 41.328125 L 32.636719 40.648438 L 29.503906 40.648438 L 29.503906 39.070312 C 29.507812 38.6875 29.570312 38.316406 29.6875 37.976562 C 29.8125 37.644531 29.992188 37.363281 30.207031 37.15625 C 30.566406 36.8125 30.957031 36.542969 31.371094 36.359375 C 31.519531 36.292969 31.667969 36.242188 31.824219 36.199219 C 32.515625 36.011719 33.230469 36.066406 33.910156 36.359375 C 34.320312 36.542969 34.714844 36.8125 35.078125 37.15625 C 35.289062 37.363281 35.464844 37.644531 35.589844 37.976562 C 35.710938 38.3125 35.773438 38.6875 35.773438 39.070312 L 35.773438 43.457031 C 35.777344 44.058594 35.617188 44.636719 35.328125 45.0625 C 35.042969 45.488281 34.65625 45.730469 34.25 45.734375 L 31.039062 45.734375 C 30.789062 45.734375 30.542969 45.808594 30.316406 45.953125 C 30.082031 46.089844 29.871094 46.296875 29.695312 46.5625 C 29.519531 46.828125 29.378906 47.140625 29.28125 47.488281 C 29.1875 47.828125 29.140625 48.195312 29.140625 48.566406 L 29.140625 50.726562 L 27.820312 50.726562 C 27.613281 50.726562 27.414062 50.644531 27.238281 50.484375 C 27.058594 50.328125 26.917969 50.105469 26.820312 49.835938 C 25.945312 47.460938 25.945312 44.582031 26.820312 42.207031 C 26.917969 41.941406 27.0625 41.71875 27.234375 41.5625 C 27.414062 41.410156 27.617188 41.328125 27.820312 41.328125 Z M 27.820312 41.328125 "/>
<path style=" stroke:none;fill-rule:nonzero;fill:rgb(100%,100%,100%);fill-opacity:1;" d="M 30.3125 38.566406 C 30.316406 39.027344 30.566406 39.402344 30.875 39.40625 C 31.183594 39.394531 31.429688 39.023438 31.4375 38.566406 C 31.433594 38.105469 31.183594 37.730469 30.875 37.726562 C 30.726562 37.726562 30.582031 37.8125 30.476562 37.972656 C 30.371094 38.128906 30.3125 38.34375 30.3125 38.566406 "/>
</g>
</svg>
