<svg xmlns="http://www.w3.org/2000/svg" viewBox="0 0 249.67 236.53">
  <defs>
    <style>
      .cls-1, .cls-3, .cls-5, .cls-7, .cls-8, .cls-9 {
        fill: none;
      }

      .cls-1 {
        stroke: #ededed;
      }

      .cls-1, .cls-3, .cls-5, .cls-7 {
        stroke-miterlimit: 10;
      }

      .cls-2 {
        fill: #0086f7;
      }

      .cls-3, .cls-9 {
        stroke: #0086f7;
      }

      .cls-3, .cls-5 {
        stroke-width: 3px;
      }

      .cls-4 {
        fill: #fff;
      }

      .cls-5, .cls-7 {
        stroke: #005dac;
      }

      .cls-6 {
        fill: #cce6fd;
      }

      .cls-7 {
        stroke-width: 0.5px;
      }

      .cls-8 {
        stroke: #fff;
        stroke-width: 14px;
      }

      .cls-8, .cls-9 {
        stroke-linejoin: round;
      }

      .cls-9 {
        stroke-width: 2.2px;
      }
    </style>
  </defs>
  <title>Bimorph-Computational-BIM-Icon-Copyright-2017</title>
  <g id="Wires">
    <path class="cls-1" d="M116.17,224.38c11.27,0,10.65-14.44,23-14.44" transform="translate(-78.83 -74.57)"/>
    <path class="cls-1" d="M116.17,227.8c11.27,0,10.65-13.61,23-13.61" transform="translate(-78.83 -74.57)"/>
    <path class="cls-1" d="M116.39,205.16c11.27,0,10.65,1.21,23,1.21" transform="translate(-78.83 -74.57)"/>
    <path class="cls-1" d="M122.38,180.41c3.74,0,3.53-13.79,7.64-13.79" transform="translate(-78.83 -74.57)"/>
    <path class="cls-1" d="M121.5,161c4.17,0,3.94,1.72,8.51,1.72" transform="translate(-78.83 -74.57)"/>
    <path class="cls-1" d="M256.32,224.2c2.36,0,0,.68,2.64.68" transform="translate(-78.83 -74.57)"/>
    <path class="cls-1" d="M284.08,224.87c1.29,0,4.14.68,5.55.68" transform="translate(-78.83 -74.57)"/>
    <path class="cls-1" d="M282.13,158.06c2,0,1.91.68,4.14.68" transform="translate(-78.83 -74.57)"/>
    <path class="cls-1" d="M119.81,140.46c34,0-55.21,40.22-33.14,40" transform="translate(-78.83 -74.57)"/>
    <path class="cls-1" d="M262.19,182.32c11.27,0,10.65,1.21,23,1.21" transform="translate(-78.83 -74.57)"/>
    <path class="cls-1" d="M315.49,183.77c5.64,0,5.32,1.21,11.51,1.21" transform="translate(-78.83 -74.57)"/>
    <path class="cls-1" d="M284.08,224.84c4.74,0-.25,16.57,5.55,16.57" transform="translate(-78.83 -74.57)"/>
  </g>
  <g id="Layer_11" data-name="Layer 11">
    <rect class="cls-2" x="1.5" y="37.63" width="246.67" height="10.38"/>
  </g>
  <g id="Window">
    <rect class="cls-3" x="1.5" y="38.95" width="246.67" height="156.79"/>
    <rect class="cls-4" x="7.84" y="40.41" width="4.25" height="4.25"/>
    <rect class="cls-4" x="15.17" y="40.41" width="4.25" height="4.25"/>
    <rect class="cls-4" x="22.5" y="40.41" width="4.25" height="4.25"/>
  </g>
  <g id="Nodes_copy" data-name="Nodes copy">
    <path class="cls-5" d="M116.18,208.32" transform="translate(-78.83 -74.57)"/>
    <path class="cls-5" d="M421.65,207.84" transform="translate(-78.83 -74.57)"/>
    <rect class="cls-6" x="12.09" y="125.55" width="25.47" height="15.41"/>
    <rect class="cls-2" x="12.09" y="125.55" width="25.47" height="3.28"/>
    <path class="cls-5" d="M122.08,183.64" transform="translate(-78.83 -74.57)"/>
    <rect class="cls-6" x="7.84" y="100.87" width="35.7" height="11.94"/>
    <rect class="cls-2" x="7.84" y="100.87" width="35.7" height="3.28"/>
    <path class="cls-5" d="M139.63,228.8" transform="translate(-78.83 -74.57)"/>
    <rect class="cls-6" x="25.39" y="146.03" width="11.94" height="13.22"/>
    <rect class="cls-2" x="25.39" y="146.03" width="11.95" height="3.28"/>
    <rect class="cls-6" x="7.84" y="58.72" width="33.91" height="15.4"/>
    <rect class="cls-2" x="7.84" y="58.72" width="33.91" height="3.28"/>
    <rect class="cls-6" x="10.05" y="82.22" width="32.61" height="11.3"/>
    <rect class="cls-2" x="10.05" y="82.22" width="32.61" height="3.28"/>
    <rect class="cls-6" x="51.18" y="83.86" width="17.86" height="15.64"/>
    <rect class="cls-2" x="51.18" y="83.86" width="17.86" height="3.28"/>
    <rect class="cls-6" x="80.18" y="85.49" width="27.11" height="15.64"/>
    <rect class="cls-2" x="80.18" y="85.49" width="27.11" height="3.28"/>
    <rect class="cls-6" x="119.05" y="99.49" width="11.36" height="12.44"/>
    <rect class="cls-2" x="119.05" y="99.49" width="11.36" height="3.28"/>
    <rect class="cls-6" x="140.8" y="81.48" width="28.49" height="15.31"/>
    <rect class="cls-2" x="140.8" y="81.48" width="28.49" height="3.28"/>
    <rect class="cls-6" x="172.93" y="79.85" width="30.36" height="19.65"/>
    <rect class="cls-2" x="172.93" y="79.85" width="30.36" height="3.28"/>
    <rect class="cls-6" x="60.11" y="127.19" width="19.43" height="19.43"/>
    <rect class="cls-2" x="60.11" y="127.19" width="19.43" height="3.28"/>
    <rect class="cls-6" x="206.68" y="103.88" width="29.86" height="14.68"/>
    <rect class="cls-2" x="206.68" y="103.88" width="29.86" height="3.28"/>
    <rect class="cls-6" x="207.43" y="79.85" width="28.11" height="11.3"/>
    <rect class="cls-2" x="207.43" y="79.85" width="28.11" height="3.28"/>
    <rect class="cls-6" x="180.12" y="146.33" width="25.13" height="11.3"/>
    <rect class="cls-2" x="180.12" y="146.33" width="25.13" height="3.28"/>
    <rect class="cls-6" x="210.8" y="144.69" width="30.74" height="11.3"/>
    <rect class="cls-2" x="210.8" y="144.69" width="30.74" height="3.28"/>
    <rect class="cls-6" x="210.8" y="161.64" width="29.36" height="11.3"/>
    <rect class="cls-2" x="210.8" y="161.64" width="29.36" height="3.28"/>
  </g>
  <g id="NodeOutlines_copy" data-name="NodeOutlines copy">
    <rect class="cls-7" x="12.09" y="125.55" width="25.47" height="15.41"/>
    <rect class="cls-7" x="7.84" y="100.87" width="35.7" height="11.94"/>
    <rect class="cls-7" x="25.39" y="146.03" width="11.94" height="13.22"/>
    <rect class="cls-7" x="7.84" y="58.72" width="33.91" height="15.8"/>
    <rect class="cls-7" x="10.05" y="82.22" width="32.61" height="11.3"/>
    <rect class="cls-7" x="51.18" y="83.86" width="17.86" height="15.64"/>
    <rect class="cls-7" x="80.18" y="85.49" width="27.11" height="15.64"/>
    <rect class="cls-7" x="119.05" y="99.49" width="11.36" height="12.44"/>
    <rect class="cls-7" x="140.8" y="81.48" width="28.49" height="15.84"/>
    <rect class="cls-7" x="172.93" y="79.85" width="30.36" height="19.65"/>
    <rect class="cls-7" x="60.11" y="127.19" width="19.43" height="19.43"/>
    <rect class="cls-7" x="206.68" y="103.88" width="29.86" height="14.68"/>
    <rect class="cls-7" x="207.43" y="79.85" width="28.11" height="11.3"/>
    <rect class="cls-7" x="180.12" y="146.33" width="25.13" height="11.3"/>
    <rect class="cls-7" x="210.8" y="144.69" width="30.74" height="11.3"/>
    <rect class="cls-7" x="210.8" y="161.64" width="29.36" height="11.3"/>
  </g>
  <g id="Twisty_Tower_Background" data-name="Twisty Tower Background">
    <path class="cls-8" d="M167.28,283.76a10.24,10.24,0,0,0,3.09,6.88,17.47,17.47,0,0,0,8,4.24" transform="translate(-78.83 -74.57)"/>
    <path class="cls-8" d="M243.62,261.36a10.49,10.49,0,0,0-2.73-7" transform="translate(-78.83 -74.57)"/>
    <path class="cls-8" d="M170.15,274.25c-2,3.36-3,6.58-2.86,9.51l.33,6.25" transform="translate(-78.83 -74.57)"/>
    <line class="cls-8" x1="164.79" y1="192.68" x2="164.79" y2="186.79"/>
    <path class="cls-8" d="M170.44,279.68a12.88,12.88,0,0,0,4.51,9.25,22.25,22.25,0,0,0,11.42,4.94" transform="translate(-78.83 -74.57)"/>
    <path class="cls-8" d="M170.08,273.4a12.76,12.76,0,0,0,4.54,9.11c2.8,2.43,6.71,4.08,11.48,4.87" transform="translate(-78.83 -74.57)"/>
    <path class="cls-8" d="M240.89,254.64a12.75,12.75,0,0,0-2-6.78" transform="translate(-78.83 -74.57)"/>
    <path class="cls-8" d="M172.42,264.05a18.55,18.55,0,0,0-2.34,9.35l.36,6.28" transform="translate(-78.83 -74.57)"/>
    <line class="cls-8" x1="162.06" y1="186.07" x2="162.06" y2="180.08"/>
    <path class="cls-8" d="M186.37,293.87a40.2,40.2,0,0,0,8.56.43,53,53,0,0,0,9.31-1.35,62.41,62.41,0,0,0,9.41-3,63.17,63.17,0,0,0,8.82-4.44,54.36,54.36,0,0,0,7.63-5.59A41.7,41.7,0,0,0,236,273.6a27.16,27.16,0,0,0,3.72-6.58,17.39,17.39,0,0,0,1.22-6.38" transform="translate(-78.83 -74.57)"/>
    <path class="cls-8" d="M186.11,287.38a40.27,40.27,0,0,0,8.56.39,53.12,53.12,0,0,0,9.38-1.32,62.64,62.64,0,0,0,9.44-3,60.19,60.19,0,0,0,8.88-4.38,56.23,56.23,0,0,0,7.67-5.5,41.46,41.46,0,0,0,5.89-6.22,27.76,27.76,0,0,0,3.72-6.48,17.51,17.51,0,0,0,1.25-6.28" transform="translate(-78.83 -74.57)"/>
    <path class="cls-8" d="M172.61,268a15.42,15.42,0,0,0,1.81,6.65A17.57,17.57,0,0,0,179,280a24,24,0,0,0,7,3.78,34.7,34.7,0,0,0,8.75,1.74" transform="translate(-78.83 -74.57)"/>
    <path class="cls-8" d="M172.29,261.65a15,15,0,0,0,1.81,6.55,17.85,17.85,0,0,0,4.64,5.36,24.85,24.85,0,0,0,7,3.69A33.32,33.32,0,0,0,194.5,279" transform="translate(-78.83 -74.57)"/>
    <path class="cls-8" d="M239,249a14.35,14.35,0,0,0-.1-1.68" transform="translate(-78.83 -74.57)"/>
    <path class="cls-8" d="M173.63,254a18.37,18.37,0,0,0-1.35,7.67l.33,6.32" transform="translate(-78.83 -74.57)"/>
    <line class="cls-8" x1="160.18" y1="180.5" x2="160.15" y2="174.38"/>
    <path class="cls-8" d="M194.76,285.57a46.29,46.29,0,0,0,15.66-1.71A49.51,49.51,0,0,0,225,277.05a36.69,36.69,0,0,0,10.3-10.37A21.81,21.81,0,0,0,239,255.07" transform="translate(-78.83 -74.57)"/>
    <path class="cls-8" d="M194.5,279a46.76,46.76,0,0,0,16.19-1.78,49.79,49.79,0,0,0,15-7.07" transform="translate(-78.83 -74.57)"/>
    <path class="cls-8" d="M236.32,258.69A20.32,20.32,0,0,0,239,249" transform="translate(-78.83 -74.57)"/>
    <path class="cls-8" d="M173.7,255.24a17.81,17.81,0,0,0,2.53,8.36,22.8,22.8,0,0,0,6.48,6.84,31.13,31.13,0,0,0,9.54,4.48,40,40,0,0,0,11.32,1.48" transform="translate(-78.83 -74.57)"/>
    <path class="cls-8" d="M173.37,248.92a17.35,17.35,0,0,0,2.57,8.19,22.5,22.5,0,0,0,6.48,6.75,31.51,31.51,0,0,0,9.58,4.38,40.48,40.48,0,0,0,11.39,1.48" transform="translate(-78.83 -74.57)"/>
    <path class="cls-8" d="M173.7,244.64a17.07,17.07,0,0,0-.33,4.28l.33,6.32" transform="translate(-78.83 -74.57)"/>
    <line class="cls-8" x1="159.46" y1="175.57" x2="159.46" y2="175.37"/>
    <path class="cls-8" d="M203.58,276.39a44.19,44.19,0,0,0,13.13-2.11A38.77,38.77,0,0,0,228,268.46a28.17,28.17,0,0,0,7.63-8.52,19.52,19.52,0,0,0,2.63-9.81" transform="translate(-78.83 -74.57)"/>
    <path class="cls-8" d="M203.38,269.71a45.47,45.47,0,0,0,13.16-2.07,39.51,39.51,0,0,0,11.35-5.69" transform="translate(-78.83 -74.57)"/>
    <path class="cls-8" d="M173.37,242.21a19.14,19.14,0,0,0,3.52,9.84,29.64,29.64,0,0,0,8.92,8.26,42.13,42.13,0,0,0,12.7,5.1,46.41,46.41,0,0,0,14.12,1" transform="translate(-78.83 -74.57)"/>
    <path class="cls-8" d="M173.07,235.85a18.23,18.23,0,0,0,3.52,9.67,29,29,0,0,0,9,8.09,42.18,42.18,0,0,0,12.73,5,46.84,46.84,0,0,0,14.18,1" transform="translate(-78.83 -74.57)"/>
    <path class="cls-8" d="M173,235.26a3.58,3.58,0,0,0,0,.59l.3,6.35" transform="translate(-78.83 -74.57)"/>
    <path class="cls-8" d="M212.63,266.39a40.45,40.45,0,0,0,10.17-2.14,29.8,29.8,0,0,0,8.36-4.48,21.25,21.25,0,0,0,5.59-6.25,16.41,16.41,0,0,0,2.24-7.4" transform="translate(-78.83 -74.57)"/>
    <path class="cls-8" d="M212.46,259.61a41.54,41.54,0,0,0,11.12-2.43,29.38,29.38,0,0,0,8.79-5.1" transform="translate(-78.83 -74.57)"/>
    <path class="cls-8" d="M171.69,229.73c.16,3.62,1.81,7.34,4.74,10.86a39.19,39.19,0,0,0,12,9.31,56.29,56.29,0,0,0,16.35,5.43,52.29,52.29,0,0,0,16.75.3" transform="translate(-78.83 -74.57)"/>
    <path class="cls-8" d="M171.69,225.79a21.29,21.29,0,0,0,6,10A42.5,42.5,0,0,0,189.86,244a58.42,58.42,0,0,0,15.73,4.67,54.41,54.41,0,0,0,15.83.13" transform="translate(-78.83 -74.57)"/>
    <line class="cls-8" x1="92.63" y1="150.89" x2="92.86" y2="155.17"/>
    <line class="cls-8" x1="162.22" y1="164.51" x2="162.22" y2="164.12"/>
    <path class="cls-8" d="M221.54,255.63a35.79,35.79,0,0,0,8-2.2,23.38,23.38,0,0,0,6.22-3.69,13.83,13.83,0,0,0,5.26-10.66" transform="translate(-78.83 -74.57)"/>
    <path class="cls-8" d="M221.41,248.79a34.7,34.7,0,0,0,9.31-2.7,20.5,20.5,0,0,0,6.68-4.67" transform="translate(-78.83 -74.57)"/>
    <path class="cls-8" d="M168.86,218.38a13.52,13.52,0,0,0,1.71,5.59,25.28,25.28,0,0,0,4.48,5.69,45.54,45.54,0,0,0,6.88,5.3,66.09,66.09,0,0,0,8.75,4.51,78.59,78.59,0,0,0,20.4,5.36,70,70,0,0,0,10,.46,46.44,46.44,0,0,0,9-1.15" transform="translate(-78.83 -74.57)"/>
    <path class="cls-8" d="M169.62,216.28c1.55,3.36,4.61,6.78,8.92,9.87a50.36,50.36,0,0,0,7.21,4.34,65.73,65.73,0,0,0,8.49,3.59,79.55,79.55,0,0,0,18.69,4,69.73,69.73,0,0,0,9,.2,49.21,49.21,0,0,0,8.06-1.09" transform="translate(-78.83 -74.57)"/>
    <line class="cls-8" x1="89.87" y1="140.69" x2="90.03" y2="143.82"/>
    <line class="cls-8" x1="165.22" y1="157.04" x2="165.22" y2="154.54"/>
    <path class="cls-8" d="M230.07,244.15a23.09,23.09,0,0,0,10.33-4.84,10.22,10.22,0,0,0,3.65-7.7" transform="translate(-78.83 -74.57)"/>
    <path class="cls-8" d="M230,237.24a26.87,26.87,0,0,0,7.57-2.8,13.7,13.7,0,0,0,4.84-4.24" transform="translate(-78.83 -74.57)"/>
    <path class="cls-8" d="M165.31,208.15a10.92,10.92,0,0,0,2.14,5.53,27.24,27.24,0,0,0,5.69,5.66,51.39,51.39,0,0,0,8.72,5.3,83.07,83.07,0,0,0,10.92,4.44A98.64,98.64,0,0,0,205,232.27a95.77,95.77,0,0,0,12.31,1.65,76.15,76.15,0,0,0,11.32,0,42.29,42.29,0,0,0,9.31-1.74" transform="translate(-78.83 -74.57)"/>
    <path class="cls-8" d="M166.89,206.77a22.2,22.2,0,0,0,4.67,4.9,45.51,45.51,0,0,0,7.14,4.71,75.2,75.2,0,0,0,9.08,4.15,104.61,104.61,0,0,0,10.43,3.32,102.5,102.5,0,0,0,11,2.2,96.39,96.39,0,0,0,10.76,1,72.66,72.66,0,0,0,9.81-.3,44.51,44.51,0,0,0,8.13-1.58" transform="translate(-78.83 -74.57)"/>
    <line class="cls-8" x1="86.31" y1="130.72" x2="86.48" y2="133.58"/>
    <line class="cls-8" x1="168.74" y1="148.19" x2="168.74" y2="143.68"/>
    <path class="cls-8" d="M237.9,232.14a18.41,18.41,0,0,0,7.17-3.88,7.56,7.56,0,0,0,2.5-5.5" transform="translate(-78.83 -74.57)"/>
    <path class="cls-8" d="M237.86,225.19c4.84-1.51,8-3.78,9.18-6.61" transform="translate(-78.83 -74.57)"/>
    <path class="cls-8" d="M161.39,198.8a9.08,9.08,0,0,0,2.6,5.3,29.81,29.81,0,0,0,7,5.46,66.84,66.84,0,0,0,10.63,5.07,111.18,111.18,0,0,0,13.19,4.11,130.5,130.5,0,0,0,14.38,2.76,118,118,0,0,0,14.05,1.12,79.63,79.63,0,0,0,12.31-.63,36.26,36.26,0,0,0,9.28-2.34" transform="translate(-78.83 -74.57)"/>
    <path class="cls-8" d="M163.5,197.32a27.42,27.42,0,0,0,5.86,4.71,58.91,58.91,0,0,0,8.79,4.44,99.83,99.83,0,0,0,11,3.88c3.95,1.12,8.13,2.14,12.37,2.93s8.56,1.41,12.77,1.81a118,118,0,0,0,12.08.49,76.33,76.33,0,0,0,10.46-.82,36.5,36.5,0,0,0,8-2.07" transform="translate(-78.83 -74.57)"/>
    <line class="cls-8" x1="82.4" y1="121.11" x2="82.56" y2="124.24"/>
    <line class="cls-8" x1="172.29" y1="138.25" x2="172.33" y2="132.04"/>
    <path class="cls-8" d="M244.84,219.67c4.11-1.71,6.28-4.08,6.28-6.84" transform="translate(-78.83 -74.57)"/>
    <path class="cls-8" d="M244.84,212.69c3.78-1.55,5.92-3.62,6.28-6.05" transform="translate(-78.83 -74.57)"/>
    <path class="cls-8" d="M157.48,190.08q.15,2.42,3.06,5a34.87,34.87,0,0,0,8.29,5.1,90,90,0,0,0,12.6,4.61,145.19,145.19,0,0,0,15.4,3.62c5.43,1,11,1.68,16.45,2.14a149.81,149.81,0,0,0,15.6.46,80.31,80.31,0,0,0,13-1.28,29.44,29.44,0,0,0,8.82-2.86" transform="translate(-78.83 -74.57)"/>
    <path class="cls-8" d="M159.65,187.91a28.46,28.46,0,0,0,6.75,4.44,75.47,75.47,0,0,0,10.33,4.18c3.95,1.28,8.32,2.47,13,3.49s9.48,1.84,14.41,2.5,9.81,1.09,14.54,1.28a121.29,121.29,0,0,0,13.43,0,75.39,75.39,0,0,0,11-1.35,27.86,27.86,0,0,0,7.63-2.57" transform="translate(-78.83 -74.57)"/>
    <path class="cls-8" d="M254.45,195.12a4.19,4.19,0,0,0,0-.63" transform="translate(-78.83 -74.57)"/>
    <line class="cls-8" x1="78.45" y1="111.83" x2="78.64" y2="115.52"/>
    <line class="cls-8" x1="175.58" y1="127.46" x2="175.62" y2="120.55"/>
    <path class="cls-8" d="M250.66,206.9c2.47-1.38,3.75-3,3.75-4.87" transform="translate(-78.83 -74.57)"/>
    <path class="cls-8" d="M250.7,199.86c2.47-1.35,3.75-3,3.75-4.74" transform="translate(-78.83 -74.57)"/>
    <path class="cls-8" d="M153.79,181.76c.1,1.51,1.28,3.09,3.52,4.71a42.85,42.85,0,0,0,9.61,4.67,115,115,0,0,0,14.41,4c5.46,1.18,11.39,2.17,17.47,2.93s12.31,1.18,18.33,1.38A165.12,165.12,0,0,0,234,199.2a84.8,84.8,0,0,0,13.26-1.94,21.71,21.71,0,0,0,8-3.32" transform="translate(-78.83 -74.57)"/>
    <path class="cls-8" d="M155.54,178.53a28.59,28.59,0,0,0,7.24,4.18,89.12,89.12,0,0,0,11.62,3.82c4.51,1.18,9.51,2.2,14.81,3.09s10.89,1.55,16.49,2,11.15.72,16.42.76,10.27-.2,14.71-.63a74.14,74.14,0,0,0,11.45-1.88,21.17,21.17,0,0,0,7-3" transform="translate(-78.83 -74.57)"/>
    <path class="cls-8" d="M257.21,183.77a3.5,3.5,0,0,0-.36-1.48" transform="translate(-78.83 -74.57)"/>
    <line class="cls-8" x1="74.7" y1="102.78" x2="74.96" y2="107.19"/>
    <line class="cls-8" x1="178.31" y1="116.14" x2="178.38" y2="109.2"/>
    <path class="cls-8" d="M255.24,193.93a4.22,4.22,0,0,0,1.91-3.22" transform="translate(-78.83 -74.57)"/>
    <path class="cls-8" d="M255.27,186.89a4.06,4.06,0,0,0,1.94-3.13" transform="translate(-78.83 -74.57)"/>
    <path class="cls-8" d="M150.6,173.57c.1,1.45,1.41,3,3.95,4.41a47.36,47.36,0,0,0,10.79,4.18,144,144,0,0,0,16.12,3.39c6.09.92,12.64,1.65,19.35,2.11s13.43.63,19.87.56a175.66,175.66,0,0,0,17.7-1.09,77.17,77.17,0,0,0,13.19-2.53c3.42-1.05,5.73-2.3,6.84-3.69" transform="translate(-78.83 -74.57)"/>
    <path class="cls-8" d="M151.42,169.06a20.46,20.46,0,0,0,7.11,3.95,86.63,86.63,0,0,0,12.54,3.52c5,1.05,10.53,2,16.52,2.67s12.24,1.22,18.53,1.51,12.5.33,18.36.16,11.29-.59,16-1.22a70.11,70.11,0,0,0,11.81-2.43c3.06-1,5.13-2.14,6.15-3.36" transform="translate(-78.83 -74.57)"/>
    <path class="cls-8" d="M259.22,172.05a3.16,3.16,0,0,0-.86-2" transform="translate(-78.83 -74.57)"/>
    <line class="cls-8" x1="71.44" y1="93.8" x2="71.77" y2="99"/>
    <line class="cls-8" x1="180.32" y1="104.49" x2="180.39" y2="97.48"/>
    <path class="cls-8" d="M258.43,180.9a3,3,0,0,0,.72-1.84" transform="translate(-78.83 -74.57)"/>
    <path class="cls-8" d="M258.46,173.86a3,3,0,0,0,.76-1.81" transform="translate(-78.83 -74.57)"/>
    <path class="cls-8" d="M148,165.4c.1,1.38,1.58,2.8,4.34,4.15a56.21,56.21,0,0,0,11.85,3.65,170.1,170.1,0,0,0,17.64,2.67c6.61.66,13.69,1.09,20.89,1.25s14.35,0,21.09-.33a176.25,176.25,0,0,0,18.23-1.84,68,68,0,0,0,12.73-3.09c3.09-1.22,4.9-2.53,5.36-3.92" transform="translate(-78.83 -74.57)"/>
    <path class="cls-8" d="M147.94,159.45c.76,1.32,2.83,2.63,6.05,3.85a76.91,76.91,0,0,0,12.87,3.26c5.26,1,11.35,1.74,17.93,2.3s13.52.89,20.53,1,13.89-.07,20.34-.46,12.34-1,17.41-1.84a62.66,62.66,0,0,0,12.08-3c2.93-1.12,4.67-2.37,5.1-3.69" transform="translate(-78.83 -74.57)"/>
    <path class="cls-8" d="M260.34,160.24a3.31,3.31,0,0,0-1.38-2.4" transform="translate(-78.83 -74.57)"/>
    <line class="cls-8" x1="68.81" y1="84.68" x2="69.2" y2="90.84"/>
    <line class="cls-8" x1="181.44" y1="92.71" x2="181.51" y2="85.67"/>
    <path class="cls-8" d="M260.17,167.94a2.46,2.46,0,0,0,.1-.66" transform="translate(-78.83 -74.57)"/>
    <path class="cls-8" d="M260.24,160.86a2.07,2.07,0,0,0,.1-.63" transform="translate(-78.83 -74.57)"/>
    <path class="cls-8" d="M146.26,157.11c.1,1.35,1.65,2.67,4.57,3.85a60.23,60.23,0,0,0,12.5,3.16c5.3.86,11.62,1.51,18.53,1.94s14.35.56,21.82.46,14.84-.49,21.75-1.12a181.27,181.27,0,0,0,18.43-2.47,58.92,58.92,0,0,0,12.31-3.52c2.86-1.28,4.34-2.63,4.34-4" transform="translate(-78.83 -74.57)"/>
    <path class="cls-8" d="M260.57,148.36a1.12,1.12,0,0,0,0-.33" transform="translate(-78.83 -74.57)"/>
    <path class="cls-8" d="M145.8,150c.1,1.28,1.65,2.57,4.57,3.72a64,64,0,0,0,12.57,3c5.33.86,11.68,1.48,18.62,1.88s14.38.56,21.88.46,14.94-.46,21.88-1.09a182.85,182.85,0,0,0,18.49-2.4,60.23,60.23,0,0,0,12.37-3.39c2.9-1.22,4.38-2.53,4.38-3.85" transform="translate(-78.83 -74.57)"/>
    <line class="cls-8" x1="181.67" y1="80.87" x2="181.74" y2="73.79"/>
    <line class="cls-8" x1="66.96" y1="75.44" x2="67.42" y2="82.55"/>
    <path class="cls-8" d="M260.54,148a3.67,3.67,0,0,0-1.94-2.24" transform="translate(-78.83 -74.57)"/>
    <path class="cls-8" d="M145.8,149.71v.3" transform="translate(-78.83 -74.57)"/>
    <path class="cls-8" d="M145.34,148.59c.1,1.32,1.65,2.5,4.57,3.59a63,63,0,0,0,12.54,2.63c5.33.69,11.65,1.12,18.56,1.32s14.38.13,21.85-.16,14.91-.92,21.82-1.71,13.16-1.78,18.46-2.9a63.4,63.4,0,0,0,12.34-3.72c2.86-1.32,4.34-2.63,4.34-3.95" transform="translate(-78.83 -74.57)"/>
    <path class="cls-8" d="M259.88,136.58a1.89,1.89,0,0,0-.46-1.22" transform="translate(-78.83 -74.57)"/>
    <path class="cls-8" d="M144.88,141.32c.07,1.25,1.65,2.4,4.57,3.46A65.06,65.06,0,0,0,162,147.31c5.36.66,11.71,1.09,18.69,1.28s14.41.13,21.95-.16,15-.89,21.88-1.65,13.26-1.71,18.56-2.8a67.36,67.36,0,0,0,12.41-3.59c2.9-1.28,4.38-2.57,4.38-3.82" transform="translate(-78.83 -74.57)"/>
    <line class="cls-8" x1="180.98" y1="69.12" x2="181.05" y2="62.01"/>
    <line class="cls-8" x1="66.04" y1="66.75" x2="66.5" y2="74.02"/>
    <path class="cls-8" d="M259.42,135.36a6.47,6.47,0,0,0-2.07-1.48" transform="translate(-78.83 -74.57)"/>
    <path class="cls-8" d="M145.4,139.94a1.89,1.89,0,0,0-.53,1.38" transform="translate(-78.83 -74.57)"/>
    <path class="cls-8" d="M145.37,139.74c.1,1.25,1.61,2.4,4.51,3.36a61.18,61.18,0,0,0,12.34,2.24c5.26.53,11.48.82,18.33.82s14.18-.23,21.55-.72,14.68-1.25,21.52-2.17,13-2.07,18.2-3.32A65.07,65.07,0,0,0,254,136.05c2.83-1.35,4.28-2.7,4.28-3.95" transform="translate(-78.83 -74.57)"/>
    <path class="cls-8" d="M258.33,124.93c0-.69-.46-1.32-1.38-1.94" transform="translate(-78.83 -74.57)"/>
    <path class="cls-8" d="M144.91,132.3c.07,1.22,1.58,2.3,4.51,3.22a64.75,64.75,0,0,0,12.41,2.17c5.26.49,11.52.76,18.39.79s14.25-.23,21.65-.72,14.77-1.18,21.62-2.11,13.06-2,18.3-3.16A67.4,67.4,0,0,0,254,128.75c2.83-1.32,4.31-2.6,4.31-3.82" transform="translate(-78.83 -74.57)"/>
    <line class="cls-8" x1="179.43" y1="57.54" x2="179.5" y2="50.36"/>
    <line class="cls-8" x1="66.07" y1="57.74" x2="66.54" y2="65.17"/>
    <path class="cls-8" d="M256.95,123a10.48,10.48,0,0,0-1.61-.82" transform="translate(-78.83 -74.57)"/>
    <path class="cls-8" d="M146.32,130.06c-1,.79-1.48,1.51-1.41,2.24" transform="translate(-78.83 -74.57)"/>
    <path class="cls-8" d="M146.32,130.46c.1,1.22,1.58,2.3,4.38,3.19a58.31,58.31,0,0,0,12,2c5.13.39,11.19.56,17.8.43s13.75-.49,20.93-1.15,14.28-1.51,20.89-2.57,12.64-2.27,17.67-3.59a63.49,63.49,0,0,0,11.85-4.08c2.73-1.38,4.15-2.73,4.15-3.95" transform="translate(-78.83 -74.57)"/>
    <path class="cls-8" d="M256,113.51c0-1-1-1.88-2.83-2.63" transform="translate(-78.83 -74.57)"/>
    <path class="cls-8" d="M145.86,122.86c.07,1.18,1.55,2.24,4.38,3.06a59.41,59.41,0,0,0,12,1.91c5.13.39,11.22.53,17.87.43s13.82-.49,21-1.12,14.35-1.45,21-2.47,12.7-2.17,17.77-3.46a63.84,63.84,0,0,0,11.88-3.92c2.76-1.32,4.18-2.6,4.18-3.78" transform="translate(-78.83 -74.57)"/>
    <line class="cls-8" x1="177.13" y1="46.15" x2="177.16" y2="38.95"/>
    <line class="cls-8" x1="67.03" y1="48.29" x2="67.49" y2="55.89"/>
    <path class="cls-8" d="M253.17,110.88l-.49-.2" transform="translate(-78.83 -74.57)"/>
    <path class="cls-8" d="M148.13,120q-2.37,1.53-2.27,2.86" transform="translate(-78.83 -74.57)"/>
    <path class="cls-8" d="M148.17,120.65c.1,1.22,1.51,2.27,4.18,3.13a53.39,53.39,0,0,0,11.48,1.81c4.87.33,10.66.39,17,.2s13.16-.69,20-1.41,13.66-1.68,20-2.83a169.93,169.93,0,0,0,16.91-3.78,60,60,0,0,0,11.32-4.21c2.6-1.41,3.95-2.76,3.95-4" transform="translate(-78.83 -74.57)"/>
    <path class="cls-8" d="M253,102.33c0-1.12-1.18-2.11-3.55-2.9" transform="translate(-78.83 -74.57)"/>
    <path class="cls-8" d="M147.7,112.92c.07,1.15,1.48,2.17,4.18,3a54.42,54.42,0,0,0,11.52,1.74c4.9.33,10.73.39,17.11.2s13.23-.66,20.1-1.35,13.72-1.61,20.07-2.7,12.14-2.34,17-3.65a61.29,61.29,0,0,0,11.35-4c2.63-1.35,4-2.63,4-3.78" transform="translate(-78.83 -74.57)"/>
    <line class="cls-8" x1="174.17" y1="35" x2="174.2" y2="27.76"/>
    <line class="cls-8" x1="68.87" y1="38.35" x2="69.33" y2="46.09"/>
    <path class="cls-8" d="M150.73,109.53c-2.07,1.22-3.09,2.34-3,3.39" transform="translate(-78.83 -74.57)"/>
    <path class="cls-8" d="M150.77,110.29c.07,1.22,1.41,2.27,3.95,3.09a44.8,44.8,0,0,0,10.83,1.74,141.93,141.93,0,0,0,16.06.13c6-.23,12.41-.72,18.85-1.48s12.87-1.74,18.82-2.93a151.9,151.9,0,0,0,16-3.88,53.91,53.91,0,0,0,10.63-4.24c2.47-1.41,3.75-2.76,3.75-4" transform="translate(-78.83 -74.57)"/>
    <line class="cls-8" x1="71.47" y1="27.82" x2="71.93" y2="35.72"/>
    <path class="cls-8" d="M153.86,98.61c-2.4,1.35-3.62,2.63-3.55,3.78" transform="translate(-78.83 -74.57)"/>
    <path class="cls-8" d="M246.75,269.09a8.78,8.78,0,0,0-3.13-6.71" transform="translate(-78.83 -74.57)"/>
    <line class="cls-8" x1="167.92" y1="200.31" x2="167.92" y2="194.52"/>
  </g>
  <g id="Twisty_Tower" data-name="Twisty Tower">
    <path class="cls-9" d="M167.61,290a10.59,10.59,0,0,0,3.13,6.94,17.57,17.57,0,0,0,8,4.34" transform="translate(-78.83 -74.57)"/>
    <path class="cls-9" d="M167.28,283.76a10.24,10.24,0,0,0,3.09,6.88,17.47,17.47,0,0,0,8,4.24" transform="translate(-78.83 -74.57)"/>
    <path class="cls-9" d="M243.62,261.36a10.49,10.49,0,0,0-2.73-7" transform="translate(-78.83 -74.57)"/>
    <path class="cls-9" d="M170.15,274.25c-2,3.36-3,6.58-2.86,9.51l.33,6.25" transform="translate(-78.83 -74.57)"/>
    <line class="cls-9" x1="164.79" y1="192.68" x2="164.79" y2="186.79"/>
    <path class="cls-9" d="M178.73,301.3a35.35,35.35,0,0,0,9,1.15,56.57,56.57,0,0,0,10.5-1,67.29,67.29,0,0,0,11.15-2.93,79,79,0,0,0,10.83-4.67,67.58,67.58,0,0,0,9.58-6,49.16,49.16,0,0,0,7.5-6.84A29.22,29.22,0,0,0,242,274a16.07,16.07,0,0,0,1.65-6.71" transform="translate(-78.83 -74.57)"/>
    <path class="cls-9" d="M178.41,294.89a35.89,35.89,0,0,0,9,1.15,57.11,57.11,0,0,0,10.56-.92,71.83,71.83,0,0,0,11.19-2.9,75.58,75.58,0,0,0,10.89-4.61,70.67,70.67,0,0,0,9.61-5.92,48.76,48.76,0,0,0,7.5-6.75,29.18,29.18,0,0,0,4.8-7,15.66,15.66,0,0,0,1.65-6.61" transform="translate(-78.83 -74.57)"/>
    <path class="cls-9" d="M170.44,279.68a12.88,12.88,0,0,0,4.51,9.25,22.25,22.25,0,0,0,11.42,4.94" transform="translate(-78.83 -74.57)"/>
    <path class="cls-9" d="M170.08,273.4a12.76,12.76,0,0,0,4.54,9.11c2.8,2.43,6.71,4.08,11.48,4.87" transform="translate(-78.83 -74.57)"/>
    <path class="cls-9" d="M240.89,254.64a12.75,12.75,0,0,0-2-6.78" transform="translate(-78.83 -74.57)"/>
    <path class="cls-9" d="M172.42,264.05a18.55,18.55,0,0,0-2.34,9.35l.36,6.28" transform="translate(-78.83 -74.57)"/>
    <line class="cls-9" x1="162.06" y1="186.07" x2="162.06" y2="180.08"/>
    <path class="cls-9" d="M186.37,293.87a40.2,40.2,0,0,0,8.56.43,53,53,0,0,0,9.31-1.35,62.41,62.41,0,0,0,9.41-3,63.17,63.17,0,0,0,8.82-4.44,54.36,54.36,0,0,0,7.63-5.59A41.7,41.7,0,0,0,236,273.6a27.16,27.16,0,0,0,3.72-6.58,17.39,17.39,0,0,0,1.22-6.38" transform="translate(-78.83 -74.57)"/>
    <path class="cls-9" d="M186.11,287.38a40.27,40.27,0,0,0,8.56.39,53.12,53.12,0,0,0,9.38-1.32,62.64,62.64,0,0,0,9.44-3,60.19,60.19,0,0,0,8.88-4.38,56.23,56.23,0,0,0,7.67-5.5,41.46,41.46,0,0,0,5.89-6.22,27.76,27.76,0,0,0,3.72-6.48,17.51,17.51,0,0,0,1.25-6.28" transform="translate(-78.83 -74.57)"/>
    <path class="cls-9" d="M172.61,268a15.42,15.42,0,0,0,1.81,6.65A17.57,17.57,0,0,0,179,280a24,24,0,0,0,7,3.78,34.7,34.7,0,0,0,8.75,1.74" transform="translate(-78.83 -74.57)"/>
    <path class="cls-9" d="M172.29,261.65a15,15,0,0,0,1.81,6.55,17.85,17.85,0,0,0,4.64,5.36,24.85,24.85,0,0,0,7,3.69A33.32,33.32,0,0,0,194.5,279" transform="translate(-78.83 -74.57)"/>
    <path class="cls-9" d="M239,249a14.35,14.35,0,0,0-.1-1.68" transform="translate(-78.83 -74.57)"/>
    <path class="cls-9" d="M173.63,254a18.37,18.37,0,0,0-1.35,7.67l.33,6.32" transform="translate(-78.83 -74.57)"/>
    <line class="cls-9" x1="160.18" y1="180.5" x2="160.15" y2="174.38"/>
    <path class="cls-9" d="M194.76,285.57a46.29,46.29,0,0,0,15.66-1.71A49.51,49.51,0,0,0,225,277.05a36.69,36.69,0,0,0,10.3-10.37A21.81,21.81,0,0,0,239,255.07" transform="translate(-78.83 -74.57)"/>
    <path class="cls-9" d="M194.5,279a46.76,46.76,0,0,0,16.19-1.78,49.79,49.79,0,0,0,15-7.07" transform="translate(-78.83 -74.57)"/>
    <path class="cls-9" d="M236.32,258.69A20.32,20.32,0,0,0,239,249" transform="translate(-78.83 -74.57)"/>
    <path class="cls-9" d="M173.7,255.24a17.81,17.81,0,0,0,2.53,8.36,22.8,22.8,0,0,0,6.48,6.84,31.13,31.13,0,0,0,9.54,4.48,40,40,0,0,0,11.32,1.48" transform="translate(-78.83 -74.57)"/>
    <path class="cls-9" d="M173.37,248.92a17.35,17.35,0,0,0,2.57,8.19,22.5,22.5,0,0,0,6.48,6.75,31.51,31.51,0,0,0,9.58,4.38,40.48,40.48,0,0,0,11.39,1.48" transform="translate(-78.83 -74.57)"/>
    <path class="cls-9" d="M173.7,244.64a17.07,17.07,0,0,0-.33,4.28l.33,6.32" transform="translate(-78.83 -74.57)"/>
    <line class="cls-9" x1="159.46" y1="175.57" x2="159.46" y2="175.37"/>
    <path class="cls-9" d="M203.58,276.39a44.19,44.19,0,0,0,13.13-2.11A38.77,38.77,0,0,0,228,268.46a28.17,28.17,0,0,0,7.63-8.52,19.52,19.52,0,0,0,2.63-9.81" transform="translate(-78.83 -74.57)"/>
    <path class="cls-9" d="M203.38,269.71a45.47,45.47,0,0,0,13.16-2.07,39.51,39.51,0,0,0,11.35-5.69" transform="translate(-78.83 -74.57)"/>
    <path class="cls-9" d="M173.37,242.21a19.14,19.14,0,0,0,3.52,9.84,29.64,29.64,0,0,0,8.92,8.26,42.13,42.13,0,0,0,12.7,5.1,46.41,46.41,0,0,0,14.12,1" transform="translate(-78.83 -74.57)"/>
    <path class="cls-9" d="M173.07,235.85a18.23,18.23,0,0,0,3.52,9.67,29,29,0,0,0,9,8.09,42.18,42.18,0,0,0,12.73,5,46.84,46.84,0,0,0,14.18,1" transform="translate(-78.83 -74.57)"/>
    <path class="cls-9" d="M173,235.26a3.58,3.58,0,0,0,0,.59l.3,6.35" transform="translate(-78.83 -74.57)"/>
    <path class="cls-9" d="M212.63,266.39a40.45,40.45,0,0,0,10.17-2.14,29.8,29.8,0,0,0,8.36-4.48,21.25,21.25,0,0,0,5.59-6.25,16.41,16.41,0,0,0,2.24-7.4" transform="translate(-78.83 -74.57)"/>
    <path class="cls-9" d="M212.46,259.61a41.54,41.54,0,0,0,11.12-2.43,29.38,29.38,0,0,0,8.79-5.1" transform="translate(-78.83 -74.57)"/>
    <path class="cls-9" d="M171.69,229.73c.16,3.62,1.81,7.34,4.74,10.86a39.19,39.19,0,0,0,12,9.31,56.29,56.29,0,0,0,16.35,5.43,52.29,52.29,0,0,0,16.75.3" transform="translate(-78.83 -74.57)"/>
    <path class="cls-9" d="M171.69,225.79a21.29,21.29,0,0,0,6,10A42.5,42.5,0,0,0,189.86,244a58.42,58.42,0,0,0,15.73,4.67,54.41,54.41,0,0,0,15.83.13" transform="translate(-78.83 -74.57)"/>
    <line class="cls-9" x1="92.63" y1="150.89" x2="92.86" y2="155.17"/>
    <line class="cls-9" x1="162.22" y1="164.51" x2="162.22" y2="164.12"/>
    <path class="cls-9" d="M221.54,255.63a35.79,35.79,0,0,0,8-2.2,23.38,23.38,0,0,0,6.22-3.69,13.83,13.83,0,0,0,5.26-10.66" transform="translate(-78.83 -74.57)"/>
    <path class="cls-9" d="M221.41,248.79a34.7,34.7,0,0,0,9.31-2.7,20.5,20.5,0,0,0,6.68-4.67" transform="translate(-78.83 -74.57)"/>
    <path class="cls-9" d="M168.86,218.38a13.52,13.52,0,0,0,1.71,5.59,25.28,25.28,0,0,0,4.48,5.69,45.54,45.54,0,0,0,6.88,5.3,66.09,66.09,0,0,0,8.75,4.51,78.59,78.59,0,0,0,20.4,5.36,70,70,0,0,0,10,.46,46.44,46.44,0,0,0,9-1.15" transform="translate(-78.83 -74.57)"/>
    <path class="cls-9" d="M169.62,216.28c1.55,3.36,4.61,6.78,8.92,9.87a50.36,50.36,0,0,0,7.21,4.34,65.73,65.73,0,0,0,8.49,3.59,79.55,79.55,0,0,0,18.69,4,69.73,69.73,0,0,0,9,.2,49.21,49.21,0,0,0,8.06-1.09" transform="translate(-78.83 -74.57)"/>
    <line class="cls-9" x1="89.87" y1="140.69" x2="90.03" y2="143.82"/>
    <line class="cls-9" x1="165.22" y1="157.04" x2="165.22" y2="154.54"/>
    <path class="cls-9" d="M230.07,244.15a23.09,23.09,0,0,0,10.33-4.84,10.22,10.22,0,0,0,3.65-7.7" transform="translate(-78.83 -74.57)"/>
    <path class="cls-9" d="M230,237.24a26.87,26.87,0,0,0,7.57-2.8,13.7,13.7,0,0,0,4.84-4.24" transform="translate(-78.83 -74.57)"/>
    <path class="cls-9" d="M165.31,208.15a10.92,10.92,0,0,0,2.14,5.53,27.24,27.24,0,0,0,5.69,5.66,51.39,51.39,0,0,0,8.72,5.3,83.07,83.07,0,0,0,10.92,4.44A98.64,98.64,0,0,0,205,232.27a95.77,95.77,0,0,0,12.31,1.65,76.15,76.15,0,0,0,11.32,0,42.29,42.29,0,0,0,9.31-1.74" transform="translate(-78.83 -74.57)"/>
    <path class="cls-9" d="M166.89,206.77a22.2,22.2,0,0,0,4.67,4.9,45.51,45.51,0,0,0,7.14,4.71,75.2,75.2,0,0,0,9.08,4.15,104.61,104.61,0,0,0,10.43,3.32,102.5,102.5,0,0,0,11,2.2,96.39,96.39,0,0,0,10.76,1,72.66,72.66,0,0,0,9.81-.3,44.51,44.51,0,0,0,8.13-1.58" transform="translate(-78.83 -74.57)"/>
    <line class="cls-9" x1="86.31" y1="130.72" x2="86.48" y2="133.58"/>
    <line class="cls-9" x1="168.74" y1="148.19" x2="168.74" y2="143.68"/>
    <path class="cls-9" d="M237.9,232.14a18.41,18.41,0,0,0,7.17-3.88,7.56,7.56,0,0,0,2.5-5.5" transform="translate(-78.83 -74.57)"/>
    <path class="cls-9" d="M237.86,225.19c4.84-1.51,8-3.78,9.18-6.61" transform="translate(-78.83 -74.57)"/>
    <path class="cls-9" d="M161.39,198.8a9.08,9.08,0,0,0,2.6,5.3,29.81,29.81,0,0,0,7,5.46,66.84,66.84,0,0,0,10.63,5.07,111.18,111.18,0,0,0,13.19,4.11,130.5,130.5,0,0,0,14.38,2.76,118,118,0,0,0,14.05,1.12,79.63,79.63,0,0,0,12.31-.63,36.26,36.26,0,0,0,9.28-2.34" transform="translate(-78.83 -74.57)"/>
    <path class="cls-9" d="M163.5,197.32a27.42,27.42,0,0,0,5.86,4.71,58.91,58.91,0,0,0,8.79,4.44,99.83,99.83,0,0,0,11,3.88c3.95,1.12,8.13,2.14,12.37,2.93s8.56,1.41,12.77,1.81a118,118,0,0,0,12.08.49,76.33,76.33,0,0,0,10.46-.82,36.5,36.5,0,0,0,8-2.07" transform="translate(-78.83 -74.57)"/>
    <line class="cls-9" x1="82.4" y1="121.11" x2="82.56" y2="124.24"/>
    <line class="cls-9" x1="172.29" y1="138.25" x2="172.33" y2="132.04"/>
    <path class="cls-9" d="M244.84,219.67c4.11-1.71,6.28-4.08,6.28-6.84" transform="translate(-78.83 -74.57)"/>
    <path class="cls-9" d="M244.84,212.69c3.78-1.55,5.92-3.62,6.28-6.05" transform="translate(-78.83 -74.57)"/>
    <path class="cls-9" d="M157.48,190.08q.15,2.42,3.06,5a34.87,34.87,0,0,0,8.29,5.1,90,90,0,0,0,12.6,4.61,145.19,145.19,0,0,0,15.4,3.62c5.43,1,11,1.68,16.45,2.14a149.81,149.81,0,0,0,15.6.46,80.31,80.31,0,0,0,13-1.28,29.44,29.44,0,0,0,8.82-2.86" transform="translate(-78.83 -74.57)"/>
    <path class="cls-9" d="M159.65,187.91a28.46,28.46,0,0,0,6.75,4.44,75.47,75.47,0,0,0,10.33,4.18c3.95,1.28,8.32,2.47,13,3.49s9.48,1.84,14.41,2.5,9.81,1.09,14.54,1.28a121.29,121.29,0,0,0,13.43,0,75.39,75.39,0,0,0,11-1.35,27.86,27.86,0,0,0,7.63-2.57" transform="translate(-78.83 -74.57)"/>
    <path class="cls-9" d="M254.45,195.12a4.19,4.19,0,0,0,0-.63" transform="translate(-78.83 -74.57)"/>
    <line class="cls-9" x1="78.45" y1="111.83" x2="78.64" y2="115.52"/>
    <line class="cls-9" x1="175.58" y1="127.46" x2="175.62" y2="120.55"/>
    <path class="cls-9" d="M250.66,206.9c2.47-1.38,3.75-3,3.75-4.87" transform="translate(-78.83 -74.57)"/>
    <path class="cls-9" d="M250.7,199.86c2.47-1.35,3.75-3,3.75-4.74" transform="translate(-78.83 -74.57)"/>
    <path class="cls-9" d="M153.79,181.76c.1,1.51,1.28,3.09,3.52,4.71a42.85,42.85,0,0,0,9.61,4.67,115,115,0,0,0,14.41,4c5.46,1.18,11.39,2.17,17.47,2.93s12.31,1.18,18.33,1.38A165.12,165.12,0,0,0,234,199.2a84.8,84.8,0,0,0,13.26-1.94,21.71,21.71,0,0,0,8-3.32" transform="translate(-78.83 -74.57)"/>
    <path class="cls-9" d="M155.54,178.53a28.59,28.59,0,0,0,7.24,4.18,89.12,89.12,0,0,0,11.62,3.82c4.51,1.18,9.51,2.2,14.81,3.09s10.89,1.55,16.49,2,11.15.72,16.42.76,10.27-.2,14.71-.63a74.14,74.14,0,0,0,11.45-1.88,21.17,21.17,0,0,0,7-3" transform="translate(-78.83 -74.57)"/>
    <path class="cls-9" d="M257.21,183.77a3.5,3.5,0,0,0-.36-1.48" transform="translate(-78.83 -74.57)"/>
    <line class="cls-9" x1="74.7" y1="102.78" x2="74.96" y2="107.19"/>
    <line class="cls-9" x1="178.31" y1="116.14" x2="178.38" y2="109.2"/>
    <path class="cls-9" d="M255.24,193.93a4.22,4.22,0,0,0,1.91-3.22" transform="translate(-78.83 -74.57)"/>
    <path class="cls-9" d="M255.27,186.89a4.06,4.06,0,0,0,1.94-3.13" transform="translate(-78.83 -74.57)"/>
    <path class="cls-9" d="M150.6,173.57c.1,1.45,1.41,3,3.95,4.41a47.36,47.36,0,0,0,10.79,4.18,144,144,0,0,0,16.12,3.39c6.09.92,12.64,1.65,19.35,2.11s13.43.63,19.87.56a175.66,175.66,0,0,0,17.7-1.09,77.17,77.17,0,0,0,13.19-2.53c3.42-1.05,5.73-2.3,6.84-3.69" transform="translate(-78.83 -74.57)"/>
    <path class="cls-9" d="M151.42,169.06a20.46,20.46,0,0,0,7.11,3.95,86.63,86.63,0,0,0,12.54,3.52c5,1.05,10.53,2,16.52,2.67s12.24,1.22,18.53,1.51,12.5.33,18.36.16,11.29-.59,16-1.22a70.11,70.11,0,0,0,11.81-2.43c3.06-1,5.13-2.14,6.15-3.36" transform="translate(-78.83 -74.57)"/>
    <path class="cls-9" d="M259.22,172.05a3.16,3.16,0,0,0-.86-2" transform="translate(-78.83 -74.57)"/>
    <line class="cls-9" x1="71.44" y1="93.8" x2="71.77" y2="99"/>
    <line class="cls-9" x1="180.32" y1="104.49" x2="180.39" y2="97.48"/>
    <path class="cls-9" d="M258.43,180.9a3,3,0,0,0,.72-1.84" transform="translate(-78.83 -74.57)"/>
    <path class="cls-9" d="M258.46,173.86a3,3,0,0,0,.76-1.81" transform="translate(-78.83 -74.57)"/>
    <path class="cls-9" d="M148,165.4c.1,1.38,1.58,2.8,4.34,4.15a56.21,56.21,0,0,0,11.85,3.65,170.1,170.1,0,0,0,17.64,2.67c6.61.66,13.69,1.09,20.89,1.25s14.35,0,21.09-.33a176.25,176.25,0,0,0,18.23-1.84,68,68,0,0,0,12.73-3.09c3.09-1.22,4.9-2.53,5.36-3.92" transform="translate(-78.83 -74.57)"/>
    <path class="cls-9" d="M147.94,159.45c.76,1.32,2.83,2.63,6.05,3.85a76.91,76.91,0,0,0,12.87,3.26c5.26,1,11.35,1.74,17.93,2.3s13.52.89,20.53,1,13.89-.07,20.34-.46,12.34-1,17.41-1.84a62.66,62.66,0,0,0,12.08-3c2.93-1.12,4.67-2.37,5.1-3.69" transform="translate(-78.83 -74.57)"/>
    <path class="cls-9" d="M260.34,160.24a3.31,3.31,0,0,0-1.38-2.4" transform="translate(-78.83 -74.57)"/>
    <line class="cls-9" x1="68.81" y1="84.68" x2="69.2" y2="90.84"/>
    <line class="cls-9" x1="181.44" y1="92.71" x2="181.51" y2="85.67"/>
    <path class="cls-9" d="M260.17,167.94a2.46,2.46,0,0,0,.1-.66" transform="translate(-78.83 -74.57)"/>
    <path class="cls-9" d="M260.24,160.86a2.07,2.07,0,0,0,.1-.63" transform="translate(-78.83 -74.57)"/>
    <path class="cls-9" d="M146.26,157.11c.1,1.35,1.65,2.67,4.57,3.85a60.23,60.23,0,0,0,12.5,3.16c5.3.86,11.62,1.51,18.53,1.94s14.35.56,21.82.46,14.84-.49,21.75-1.12a181.27,181.27,0,0,0,18.43-2.47,58.92,58.92,0,0,0,12.31-3.52c2.86-1.28,4.34-2.63,4.34-4" transform="translate(-78.83 -74.57)"/>
    <path class="cls-9" d="M260.57,148.36a1.12,1.12,0,0,0,0-.33" transform="translate(-78.83 -74.57)"/>
    <path class="cls-9" d="M145.8,150c.1,1.28,1.65,2.57,4.57,3.72a64,64,0,0,0,12.57,3c5.33.86,11.68,1.48,18.62,1.88s14.38.56,21.88.46,14.94-.46,21.88-1.09a182.85,182.85,0,0,0,18.49-2.4,60.23,60.23,0,0,0,12.37-3.39c2.9-1.22,4.38-2.53,4.38-3.85" transform="translate(-78.83 -74.57)"/>
    <line class="cls-9" x1="181.67" y1="80.87" x2="181.74" y2="73.79"/>
    <line class="cls-9" x1="66.96" y1="75.44" x2="67.42" y2="82.55"/>
    <path class="cls-9" d="M260.54,148a3.67,3.67,0,0,0-1.94-2.24" transform="translate(-78.83 -74.57)"/>
    <path class="cls-9" d="M145.8,149.71v.3" transform="translate(-78.83 -74.57)"/>
    <path class="cls-9" d="M145.34,148.59c.1,1.32,1.65,2.5,4.57,3.59a63,63,0,0,0,12.54,2.63c5.33.69,11.65,1.12,18.56,1.32s14.38.13,21.85-.16,14.91-.92,21.82-1.71,13.16-1.78,18.46-2.9a63.4,63.4,0,0,0,12.34-3.72c2.86-1.32,4.34-2.63,4.34-3.95" transform="translate(-78.83 -74.57)"/>
    <path class="cls-9" d="M259.88,136.58a1.89,1.89,0,0,0-.46-1.22" transform="translate(-78.83 -74.57)"/>
    <path class="cls-9" d="M144.88,141.32c.07,1.25,1.65,2.4,4.57,3.46A65.06,65.06,0,0,0,162,147.31c5.36.66,11.71,1.09,18.69,1.28s14.41.13,21.95-.16,15-.89,21.88-1.65,13.26-1.71,18.56-2.8a67.36,67.36,0,0,0,12.41-3.59c2.9-1.28,4.38-2.57,4.38-3.82" transform="translate(-78.83 -74.57)"/>
    <line class="cls-9" x1="180.98" y1="69.12" x2="181.05" y2="62.01"/>
    <line class="cls-9" x1="66.04" y1="66.75" x2="66.5" y2="74.02"/>
    <path class="cls-9" d="M259.42,135.36a6.47,6.47,0,0,0-2.07-1.48" transform="translate(-78.83 -74.57)"/>
    <path class="cls-9" d="M145.4,139.94a1.89,1.89,0,0,0-.53,1.38" transform="translate(-78.83 -74.57)"/>
    <path class="cls-9" d="M145.37,139.74c.1,1.25,1.61,2.4,4.51,3.36a61.18,61.18,0,0,0,12.34,2.24c5.26.53,11.48.82,18.33.82s14.18-.23,21.55-.72,14.68-1.25,21.52-2.17,13-2.07,18.2-3.32A65.07,65.07,0,0,0,254,136.05c2.83-1.35,4.28-2.7,4.28-3.95" transform="translate(-78.83 -74.57)"/>
    <path class="cls-9" d="M258.33,124.93c0-.69-.46-1.32-1.38-1.94" transform="translate(-78.83 -74.57)"/>
    <path class="cls-9" d="M144.91,132.3c.07,1.22,1.58,2.3,4.51,3.22a64.75,64.75,0,0,0,12.41,2.17c5.26.49,11.52.76,18.39.79s14.25-.23,21.65-.72,14.77-1.18,21.62-2.11,13.06-2,18.3-3.16A67.4,67.4,0,0,0,254,128.75c2.83-1.32,4.31-2.6,4.31-3.82" transform="translate(-78.83 -74.57)"/>
    <line class="cls-9" x1="179.43" y1="57.54" x2="179.5" y2="50.36"/>
    <line class="cls-9" x1="66.07" y1="57.74" x2="66.54" y2="65.17"/>
    <path class="cls-9" d="M256.95,123a10.48,10.48,0,0,0-1.61-.82" transform="translate(-78.83 -74.57)"/>
    <path class="cls-9" d="M146.32,130.06c-1,.79-1.48,1.51-1.41,2.24" transform="translate(-78.83 -74.57)"/>
    <path class="cls-9" d="M146.32,130.46c.1,1.22,1.58,2.3,4.38,3.19a58.31,58.31,0,0,0,12,2c5.13.39,11.19.56,17.8.43s13.75-.49,20.93-1.15,14.28-1.51,20.89-2.57,12.64-2.27,17.67-3.59a63.49,63.49,0,0,0,11.85-4.08c2.73-1.38,4.15-2.73,4.15-3.95" transform="translate(-78.83 -74.57)"/>
    <path class="cls-9" d="M256,113.51c0-1-1-1.88-2.83-2.63" transform="translate(-78.83 -74.57)"/>
    <path class="cls-9" d="M145.86,122.86c.07,1.18,1.55,2.24,4.38,3.06a59.41,59.41,0,0,0,12,1.91c5.13.39,11.22.53,17.87.43s13.82-.49,21-1.12,14.35-1.45,21-2.47,12.7-2.17,17.77-3.46a63.84,63.84,0,0,0,11.88-3.92c2.76-1.32,4.18-2.6,4.18-3.78" transform="translate(-78.83 -74.57)"/>
    <line class="cls-9" x1="177.13" y1="46.15" x2="177.16" y2="38.95"/>
    <line class="cls-9" x1="67.03" y1="48.29" x2="67.49" y2="55.89"/>
    <path class="cls-9" d="M253.17,110.88l-.49-.2" transform="translate(-78.83 -74.57)"/>
    <path class="cls-9" d="M148.13,120q-2.37,1.53-2.27,2.86" transform="translate(-78.83 -74.57)"/>
    <path class="cls-9" d="M148.17,120.65c.1,1.22,1.51,2.27,4.18,3.13a53.39,53.39,0,0,0,11.48,1.81c4.87.33,10.66.39,17,.2s13.16-.69,20-1.41,13.66-1.68,20-2.83a169.93,169.93,0,0,0,16.91-3.78,60,60,0,0,0,11.32-4.21c2.6-1.41,3.95-2.76,3.95-4" transform="translate(-78.83 -74.57)"/>
    <path class="cls-9" d="M253,102.33c0-1.12-1.18-2.11-3.55-2.9" transform="translate(-78.83 -74.57)"/>
    <path class="cls-9" d="M147.7,112.92c.07,1.15,1.48,2.17,4.18,3a54.42,54.42,0,0,0,11.52,1.74c4.9.33,10.73.39,17.11.2s13.23-.66,20.1-1.35,13.72-1.61,20.07-2.7,12.14-2.34,17-3.65a61.29,61.29,0,0,0,11.35-4c2.63-1.35,4-2.63,4-3.78" transform="translate(-78.83 -74.57)"/>
    <line class="cls-9" x1="174.17" y1="35" x2="174.2" y2="27.76"/>
    <line class="cls-9" x1="68.87" y1="38.35" x2="69.33" y2="46.09"/>
    <path class="cls-9" d="M150.73,109.53c-2.07,1.22-3.09,2.34-3,3.39" transform="translate(-78.83 -74.57)"/>
    <path class="cls-9" d="M150.77,110.29c.07,1.22,1.41,2.27,3.95,3.09a44.8,44.8,0,0,0,10.83,1.74,141.93,141.93,0,0,0,16.06.13c6-.23,12.41-.72,18.85-1.48s12.87-1.74,18.82-2.93a151.9,151.9,0,0,0,16-3.88,53.91,53.91,0,0,0,10.63-4.24c2.47-1.41,3.75-2.76,3.75-4" transform="translate(-78.83 -74.57)"/>
    <path class="cls-9" d="M249.61,91.4c0-1.15-1.22-2.14-3.62-3" transform="translate(-78.83 -74.57)"/>
    <path class="cls-9" d="M150.3,102.39c.07,1.18,1.41,2.17,3.95,3A49.59,49.59,0,0,0,165.11,107a152,152,0,0,0,16.16.13c6-.23,12.44-.69,19-1.41S213.15,104,219.14,103s11.45-2.37,16-3.72a55.37,55.37,0,0,0,10.69-4c2.5-1.35,3.75-2.63,3.75-3.78" transform="translate(-78.83 -74.57)"/>
    <line class="cls-9" x1="170.78" y1="24.14" x2="170.78" y2="16.83"/>
    <line class="cls-9" x1="71.47" y1="27.82" x2="71.93" y2="35.72"/>
    <path class="cls-9" d="M153.86,98.61c-2.4,1.35-3.62,2.63-3.55,3.78" transform="translate(-78.83 -74.57)"/>
    <path class="cls-9" d="M153.89,99.3c.1,1.22,1.35,2.27,3.69,3.13a40.24,40.24,0,0,0,10.1,1.81,128.65,128.65,0,0,0,15,.23c5.59-.2,11.55-.69,17.57-1.41s12-1.68,17.54-2.83a142.42,142.42,0,0,0,14.87-3.82,50.18,50.18,0,0,0,9.9-4.21c2.3-1.41,3.49-2.8,3.49-4" transform="translate(-78.83 -74.57)"/>
    <path class="cls-9" d="M246,80.77c0-1.05-1-2-2.76-2.73a30.63,30.63,0,0,0-7.9-1.74" transform="translate(-78.83 -74.57)"/>
    <path class="cls-9" d="M153.43,91.27c.07,1.15,1.35,2.17,3.72,3a42.55,42.55,0,0,0,10.13,1.71,137.46,137.46,0,0,0,15,.23c5.59-.2,11.62-.66,17.67-1.35s12-1.58,17.64-2.67a147.12,147.12,0,0,0,14.94-3.62,52.2,52.2,0,0,0,9.94-4c2.34-1.35,3.52-2.63,3.52-3.78" transform="translate(-78.83 -74.57)"/>
    <line class="cls-9" x1="167.19" y1="13.61" x2="167.19" y2="6.21"/>
    <line class="cls-9" x1="74.6" y1="16.7" x2="75.06" y2="24.73"/>
    <path class="cls-9" d="M235.36,76.3a97.39,97.39,0,0,0-10.63-.63c-4,0-8.36.07-13,.36s-9.35.72-14.08,1.28-9.44,1.28-13.92,2.11-8.62,1.71-12.41,2.7a90.86,90.86,0,0,0-9.74,3.09,27.66,27.66,0,0,0-6.15,3.13c-1.38,1.05-2.07,2-2,2.93" transform="translate(-78.83 -74.57)"/>
    <path class="cls-9" d="M164.65,299a8.52,8.52,0,0,0,2,5.17,13.27,13.27,0,0,0,5.33,3.69" transform="translate(-78.83 -74.57)"/>
    <path class="cls-9" d="M164.29,292.85a8.42,8.42,0,0,0,2,5.1,14,14,0,0,0,5.36,3.65" transform="translate(-78.83 -74.57)"/>
    <path class="cls-9" d="M246.75,269.09a8.78,8.78,0,0,0-3.13-6.71" transform="translate(-78.83 -74.57)"/>
    <path class="cls-9" d="M167.28,284c-2.14,3.16-3.16,6.15-3,8.85l.36,6.15" transform="translate(-78.83 -74.57)"/>
    <line class="cls-9" x1="167.92" y1="200.31" x2="167.92" y2="194.52"/>
    <path class="cls-9" d="M172,307.85a29.89,29.89,0,0,0,9,2,59.26,59.26,0,0,0,11.45-.33A84.78,84.78,0,0,0,205.19,307a97.22,97.22,0,0,0,12.8-4.61,89.39,89.39,0,0,0,11.58-6.15,63.31,63.31,0,0,0,9.21-7.11,32.75,32.75,0,0,0,5.92-7.34,14.34,14.34,0,0,0,2-6.88" transform="translate(-78.83 -74.57)"/>
    <path class="cls-9" d="M171.69,301.6a30,30,0,0,0,9,1.94,56.93,56.93,0,0,0,11.48-.3A86,86,0,0,0,205,300.68a94.39,94.39,0,0,0,12.83-4.54,86.1,86.1,0,0,0,11.65-6.05,61.19,61.19,0,0,0,9.25-7,31.69,31.69,0,0,0,5.92-7.24,13.52,13.52,0,0,0,2.07-6.75" transform="translate(-78.83 -74.57)"/>
  </g>
</svg>
