<?xml version="1.0" encoding="UTF-8"?>
<svg xmlns="http://www.w3.org/2000/svg" xmlns:xlink="http://www.w3.org/1999/xlink" width="64pt" height="64pt" viewBox="0 0 64 64" version="1.1">
<g id="surface1">
<path style=" stroke:none;fill-rule:nonzero;fill:rgb(19.607843%,23.529412%,41.960784%);fill-opacity:1;" d="M 10.152344 18.585938 C 7.394531 18.582031 5.160156 16.347656 5.15625 13.589844 L 5.15625 7.160156 C 5.15625 4.398438 7.394531 2.160156 10.152344 2.160156 C 12.914062 2.160156 15.152344 4.398438 15.152344 7.160156 L 15.152344 13.589844 C 15.148438 16.347656 12.914062 18.582031 10.152344 18.585938 Z M 10.152344 3.027344 C 7.871094 3.03125 6.023438 4.878906 6.019531 7.160156 L 6.019531 13.589844 C 6.019531 15.871094 7.871094 17.722656 10.152344 17.722656 C 12.4375 17.722656 14.289062 15.871094 14.289062 13.589844 L 14.289062 7.160156 C 14.285156 4.878906 12.4375 3.027344 10.152344 3.027344 Z M 10.152344 3.027344 "/>
<path style=" stroke:none;fill-rule:nonzero;fill:rgb(19.607843%,23.529412%,41.960784%);fill-opacity:1;" d="M 20.566406 18.585938 C 20.328125 18.585938 20.132812 18.390625 20.132812 18.152344 L 20.132812 2.59375 C 20.132812 2.355469 20.328125 2.164062 20.566406 2.164062 C 20.804688 2.164062 21 2.355469 21 2.59375 L 21 18.152344 C 21 18.390625 20.804688 18.585938 20.566406 18.585938 Z M 20.566406 18.585938 "/>
<path style=" stroke:none;fill-rule:nonzero;fill:rgb(19.607843%,23.529412%,41.960784%);fill-opacity:1;" d="M 50.179688 18.585938 C 49.941406 18.585938 49.75 18.390625 49.75 18.152344 L 49.75 2.59375 C 49.75 2.355469 49.941406 2.164062 50.179688 2.164062 C 50.421875 2.164062 50.613281 2.355469 50.613281 2.59375 L 50.613281 18.152344 C 50.613281 18.390625 50.421875 18.585938 50.179688 18.585938 Z M 50.179688 18.585938 "/>
<path style=" stroke:none;fill-rule:nonzero;fill:rgb(19.607843%,23.529412%,41.960784%);fill-opacity:1;" d="M 50.179688 40.632812 C 49.941406 40.632812 49.75 40.4375 49.75 40.199219 L 49.75 24.640625 C 49.75 24.402344 49.941406 24.207031 50.179688 24.207031 C 50.421875 24.207031 50.613281 24.402344 50.613281 24.640625 L 50.613281 40.199219 C 50.613281 40.4375 50.421875 40.632812 50.179688 40.632812 Z M 50.179688 40.632812 "/>
<path style=" stroke:none;fill-rule:nonzero;fill:rgb(19.607843%,23.529412%,41.960784%);fill-opacity:1;" d="M 58.410156 18.585938 C 58.171875 18.585938 57.980469 18.390625 57.980469 18.152344 L 57.980469 2.59375 C 57.980469 2.355469 58.171875 2.164062 58.410156 2.164062 C 58.652344 2.164062 58.84375 2.355469 58.84375 2.59375 L 58.84375 18.152344 C 58.84375 18.390625 58.652344 18.585938 58.410156 18.585938 Z M 58.410156 18.585938 "/>
<path style=" stroke:none;fill-rule:nonzero;fill:rgb(19.607843%,23.529412%,41.960784%);fill-opacity:1;" d="M 31.257812 18.585938 C 28.5 18.582031 26.265625 16.347656 26.261719 13.589844 L 26.261719 7.160156 C 26.261719 4.398438 28.5 2.164062 31.257812 2.164062 C 34.019531 2.164062 36.257812 4.398438 36.257812 7.160156 L 36.257812 13.589844 C 36.253906 16.347656 34.019531 18.582031 31.257812 18.585938 Z M 31.257812 3.027344 C 28.976562 3.03125 27.128906 4.878906 27.125 7.160156 L 27.125 13.589844 C 27.125 15.871094 28.976562 17.722656 31.257812 17.722656 C 33.542969 17.722656 35.394531 15.871094 35.394531 13.589844 L 35.394531 7.160156 C 35.390625 4.878906 33.542969 3.03125 31.257812 3.027344 Z M 31.257812 3.027344 "/>
<path style=" stroke:none;fill-rule:nonzero;fill:rgb(19.607843%,23.529412%,41.960784%);fill-opacity:1;" d="M 41.953125 18.585938 C 41.714844 18.585938 41.519531 18.390625 41.519531 18.152344 L 41.519531 2.59375 C 41.519531 2.355469 41.714844 2.164062 41.953125 2.164062 C 42.191406 2.164062 42.382812 2.355469 42.382812 2.59375 L 42.382812 18.152344 C 42.382812 18.390625 42.191406 18.585938 41.953125 18.585938 Z M 41.953125 18.585938 "/>
<path style=" stroke:none;fill-rule:nonzero;fill:rgb(19.607843%,23.529412%,41.960784%);fill-opacity:1;" d="M 39.667969 40.632812 C 36.910156 40.628906 34.671875 38.390625 34.671875 35.632812 L 34.671875 29.207031 C 34.671875 26.445312 36.910156 24.207031 39.667969 24.207031 C 42.429688 24.207031 44.667969 26.445312 44.667969 29.207031 L 44.667969 35.632812 C 44.664062 38.390625 42.429688 40.628906 39.667969 40.632812 Z M 39.667969 25.074219 C 37.386719 25.074219 35.539062 26.925781 35.535156 29.207031 L 35.535156 35.632812 C 35.535156 37.914062 37.386719 39.765625 39.667969 39.765625 C 41.953125 39.765625 43.804688 37.914062 43.804688 35.632812 L 43.804688 29.207031 C 43.800781 26.925781 41.949219 25.074219 39.667969 25.074219 Z M 39.667969 25.074219 "/>
<path style=" stroke:none;fill-rule:nonzero;fill:rgb(19.607843%,23.529412%,41.960784%);fill-opacity:1;" d="M 16.800781 40.632812 C 16.5625 40.632812 16.371094 40.4375 16.371094 40.199219 L 16.371094 24.640625 C 16.371094 24.402344 16.5625 24.207031 16.800781 24.207031 C 17.039062 24.207031 17.234375 24.402344 17.234375 24.640625 L 17.234375 40.199219 C 17.234375 40.4375 17.039062 40.632812 16.800781 40.632812 Z M 16.800781 40.632812 "/>
<path style=" stroke:none;fill-rule:nonzero;fill:rgb(19.607843%,23.529412%,41.960784%);fill-opacity:1;" d="M 5.589844 40.632812 C 5.347656 40.632812 5.15625 40.4375 5.15625 40.199219 L 5.15625 24.640625 C 5.15625 24.402344 5.347656 24.207031 5.589844 24.207031 C 5.828125 24.207031 6.019531 24.402344 6.019531 24.640625 L 6.019531 40.199219 C 6.019531 40.4375 5.828125 40.632812 5.589844 40.632812 Z M 5.589844 40.632812 "/>
<path style=" stroke:none;fill-rule:nonzero;fill:rgb(19.607843%,23.529412%,41.960784%);fill-opacity:1;" d="M 5.589844 61.835938 C 5.347656 61.835938 5.15625 61.644531 5.15625 61.40625 L 5.15625 45.847656 C 5.15625 45.609375 5.347656 45.414062 5.589844 45.414062 C 5.828125 45.414062 6.019531 45.609375 6.019531 45.847656 L 6.019531 61.40625 C 6.019531 61.644531 5.828125 61.835938 5.589844 61.835938 Z M 5.589844 61.835938 "/>
<path style=" stroke:none;fill-rule:nonzero;fill:rgb(19.607843%,23.529412%,41.960784%);fill-opacity:1;" d="M 58.410156 40.632812 C 58.171875 40.632812 57.980469 40.4375 57.980469 40.199219 L 57.980469 24.640625 C 57.980469 24.402344 58.171875 24.207031 58.410156 24.207031 C 58.652344 24.207031 58.84375 24.402344 58.84375 24.640625 L 58.84375 40.199219 C 58.84375 40.4375 58.652344 40.632812 58.410156 40.632812 Z M 58.410156 40.632812 "/>
<path style=" stroke:none;fill-rule:nonzero;fill:rgb(19.607843%,23.529412%,41.960784%);fill-opacity:1;" d="M 28.015625 40.632812 C 27.777344 40.632812 27.582031 40.4375 27.582031 40.199219 L 27.582031 24.640625 C 27.582031 24.402344 27.777344 24.207031 28.015625 24.207031 C 28.253906 24.207031 28.449219 24.402344 28.449219 24.640625 L 28.449219 40.199219 C 28.449219 40.4375 28.253906 40.632812 28.015625 40.632812 Z M 28.015625 40.632812 "/>
<path style=" stroke:none;fill-rule:nonzero;fill:rgb(19.607843%,23.529412%,41.960784%);fill-opacity:1;" d="M 16.800781 61.835938 C 16.5625 61.835938 16.371094 61.644531 16.371094 61.40625 L 16.371094 45.847656 C 16.371094 45.609375 16.5625 45.414062 16.800781 45.414062 C 17.039062 45.414062 17.234375 45.609375 17.234375 45.847656 L 17.234375 61.40625 C 17.234375 61.644531 17.039062 61.835938 16.800781 61.835938 Z M 16.800781 61.835938 "/>
<path style=" stroke:none;fill-rule:nonzero;fill:rgb(19.607843%,23.529412%,41.960784%);fill-opacity:1;" d="M 31.257812 61.835938 C 28.5 61.835938 26.265625 59.597656 26.261719 56.839844 L 26.261719 50.410156 C 26.261719 47.652344 28.5 45.414062 31.257812 45.414062 C 34.019531 45.414062 36.257812 47.652344 36.257812 50.410156 L 36.257812 56.839844 C 36.253906 59.597656 34.019531 61.835938 31.257812 61.835938 Z M 31.257812 46.277344 C 28.976562 46.28125 27.128906 48.128906 27.125 50.410156 L 27.125 56.839844 C 27.125 59.121094 28.976562 60.972656 31.257812 60.972656 C 33.542969 60.972656 35.394531 59.121094 35.394531 56.839844 L 35.394531 50.410156 C 35.390625 48.128906 33.542969 46.28125 31.257812 46.277344 Z M 31.257812 46.277344 "/>
<path style=" stroke:none;fill-rule:nonzero;fill:rgb(19.607843%,23.529412%,41.960784%);fill-opacity:1;" d="M 53.847656 61.835938 C 51.085938 61.835938 48.851562 59.597656 48.847656 56.839844 L 48.847656 50.410156 C 48.847656 47.652344 51.085938 45.414062 53.847656 45.414062 C 56.609375 45.414062 58.84375 47.652344 58.84375 50.410156 L 58.84375 56.839844 C 58.84375 59.597656 56.605469 61.835938 53.847656 61.835938 Z M 53.847656 46.277344 C 51.566406 46.28125 49.714844 48.128906 49.714844 50.410156 L 49.714844 56.839844 C 49.714844 59.121094 51.5625 60.972656 53.847656 60.972656 C 56.128906 60.972656 57.980469 59.121094 57.980469 56.839844 L 57.980469 50.410156 C 57.976562 48.128906 56.128906 46.28125 53.847656 46.277344 Z M 53.847656 46.277344 "/>
<path style=" stroke:none;fill-rule:nonzero;fill:rgb(19.607843%,23.529412%,41.960784%);fill-opacity:1;" d="M 41.953125 61.835938 C 41.714844 61.835938 41.519531 61.644531 41.519531 61.40625 L 41.519531 45.847656 C 41.519531 45.609375 41.714844 45.414062 41.953125 45.414062 C 42.191406 45.414062 42.382812 45.609375 42.382812 45.847656 L 42.382812 61.40625 C 42.382812 61.644531 42.191406 61.835938 41.953125 61.835938 Z M 41.953125 61.835938 "/>
</g>
</svg>
