<svg id="Layer_1" enable-background="new 0 0 256 256" height="512" viewBox="0 0 256 256" width="512" xmlns="http://www.w3.org/2000/svg"><g><path d="m54.835 111.166c-.222 0-.446-.03-.67-.092-1.331-.369-2.11-1.747-1.741-3.078 9.382-33.799 40.46-57.404 75.576-57.404.521 0 1.042.005 1.561.015 1.381.027 2.478 1.168 2.451 2.549-.026 1.38-1.17 2.486-2.548 2.451-.487-.01-.975-.015-1.464-.015-32.878 0-61.975 22.1-70.758 53.742-.307 1.106-1.312 1.832-2.407 1.832z" fill="#65c1d6"/><path d="m128 207.442c-1.054 0-2.104-.021-3.148-.063-1.379-.055-2.454-1.218-2.399-2.597.054-1.381 1.232-2.451 2.597-2.399.978.039 1.962.059 2.95.059 34.143 0 64.289-24.154 71.68-57.434.299-1.348 1.636-2.197 2.982-1.898 1.348.299 2.198 1.635 1.898 2.982-3.806 17.139-13.452 32.707-27.16 43.838-13.907 11.294-31.451 17.512-49.4 17.512z" fill="#65c1d6"/><g fill="#846f75"><path d="m81.836 111.759c-32.019 0-58.068 26.05-58.068 58.068 0 11.191 3.175 22.008 9.193 31.365l-7.857 22.022c-.325.909-.096 1.925.587 2.607.683.684 1.697.911 2.607.587l21.974-7.84c9.406 6.105 20.291 9.325 31.563 9.325 32.019 0 58.067-26.049 58.067-58.067s-26.047-58.067-58.066-58.067zm0 111.136c-10.694 0-21.005-3.17-29.817-9.167-.42-.286-.912-.434-1.407-.434-.283 0-.567.048-.84.146l-18.187 6.488 6.504-18.229c.267-.748.163-1.579-.282-2.237-5.914-8.769-9.04-19.016-9.04-29.634 0-29.262 23.806-53.068 53.068-53.068 29.261 0 53.067 23.807 53.067 53.068s-23.804 53.067-53.066 53.067z"/><path d="m223.038 117.539c6.019-9.357 9.193-20.174 9.193-31.366 0-32.019-26.049-58.067-58.068-58.067s-58.067 26.049-58.067 58.067 26.049 58.068 58.067 58.068c11.273 0 22.158-3.22 31.563-9.325l21.974 7.84c.909.323 1.925.097 2.607-.587.683-.683.912-1.698.587-2.607zm-16.81 12.247c-.753-.27-1.587-.162-2.247.288-8.812 5.997-19.123 9.167-29.817 9.167-29.261 0-53.067-23.807-53.067-53.068s23.806-53.067 53.067-53.067c29.262 0 53.068 23.806 53.068 53.067 0 10.619-3.126 20.866-9.04 29.635-.444.658-.549 1.489-.282 2.237l6.504 18.229z"/></g><g fill="#65c1d6"><path d="m81.204 210.363c-2.52 0-4.883-.979-6.656-2.756-1.767-1.763-2.743-4.124-2.743-6.645 0-2.477.95-4.818 2.676-6.594 1.768-1.831 4.158-2.842 6.723-2.842 2.52 0 4.891.985 6.675 2.773 1.78 1.78 2.762 4.147 2.762 6.662 0 2.559-1.011 4.949-2.848 6.73-1.777 1.724-4.117 2.672-6.589 2.672zm0-13.836c-1.197 0-2.309.469-3.132 1.321-.819.842-1.267 1.946-1.267 3.114 0 1.183.454 2.286 1.279 3.108.832.835 1.938 1.292 3.12 1.292 1.166 0 2.27-.447 3.108-1.26.856-.831 1.329-1.946 1.329-3.141 0-1.18-.461-2.291-1.299-3.129-.842-.841-1.955-1.305-3.138-1.305z"/><path d="m82.048 187.94h-1.98c-1.969 0-3.889-.805-5.267-2.208-1.379-1.404-2.149-3.338-2.114-5.306.066-3.789.696-6.946 1.924-9.651 1.212-2.667 3.233-5.298 6.178-8.047 2.39-2.23 3.301-3.347 3.631-3.813.414-.585.71-1.17.881-1.739.134-.445.293-1.275.293-2.71 0-1.597-.286-2.716-.851-3.324-.17-.183-.632-.679-2.364-.679-2.14 0-2.755.64-2.987.881-.498.517-1.01 1.286-1.036 3.067-.059 4.011-3.37 7.273-7.381 7.273h-1.98c-1.96 0-3.875-.8-5.252-2.194s-2.154-3.318-2.13-5.278c.074-5.994 2.132-10.975 6.118-14.805 3.926-3.775 8.855-5.689 14.649-5.689 5.941 0 10.836 2.005 14.549 5.96 3.591 3.82 5.412 8.815 5.412 14.844 0 3.962-.82 7.601-2.437 10.816-1.525 3.033-4.159 6.225-8.051 9.759-.136.123-.276.241-.42.354-.648.506-2 1.562-2 5.108-.002 4.07-3.314 7.381-7.385 7.381zm.33-42.477c2.629 0 4.6.744 6.026 2.273 1.475 1.59 2.189 3.79 2.189 6.729 0 1.64-.17 3.036-.505 4.149-.326 1.085-.86 2.158-1.586 3.187-.783 1.107-2.231 2.649-4.303 4.583-2.455 2.291-4.102 4.403-5.037 6.459-.939 2.068-1.422 4.578-1.477 7.672-.011.636.237 1.26.683 1.713.444.452 1.064.712 1.7.712h1.98c1.314 0 2.383-1.068 2.383-2.382 0-4.028 1.284-6.989 3.924-9.051.048-.037.093-.075.136-.114 3.429-3.112 5.7-5.828 6.944-8.302 1.263-2.513 1.903-5.396 1.903-8.57 0-4.715-1.365-8.558-4.056-11.421 0 0 0 0-.001-.001-2.729-2.907-6.398-4.382-10.903-4.382-4.458 0-8.221 1.445-11.185 4.294-2.985 2.868-4.526 6.656-4.583 11.261-.008.633.243 1.254.688 1.704s1.062.708 1.695.708h1.98c1.294 0 2.363-1.053 2.382-2.347.04-2.688.835-4.8 2.432-6.461 1.564-1.623 3.719-2.413 6.591-2.413z"/><path d="m196.665 108.695h-18.145c-1.381 0-2.5-1.119-2.5-2.5s1.119-2.5 2.5-2.5h18.145c1.381 0 2.5 1.119 2.5 2.5s-1.12 2.5-2.5 2.5z"/><path d="m166.698 108.695h-22.296c-1.381 0-2.5-1.119-2.5-2.5s1.119-2.5 2.5-2.5h22.296c1.381 0 2.5 1.119 2.5 2.5s-1.119 2.5-2.5 2.5z"/><path d="m203.925 89.385h-8.758c-1.381 0-2.5-1.119-2.5-2.5s1.119-2.5 2.5-2.5h8.758c1.381 0 2.5 1.119 2.5 2.5s-1.119 2.5-2.5 2.5z"/><path d="m183.346 89.385h-38.943c-1.381 0-2.5-1.119-2.5-2.5s1.119-2.5 2.5-2.5h38.943c1.381 0 2.5 1.119 2.5 2.5s-1.119 2.5-2.5 2.5z"/><path d="m194.878 70.074h-50.476c-1.381 0-2.5-1.119-2.5-2.5s1.119-2.5 2.5-2.5h50.476c1.381 0 2.5 1.119 2.5 2.5s-1.119 2.5-2.5 2.5z"/></g></g></svg>