<?xml version="1.0" encoding="UTF-8"?>
<svg xmlns="http://www.w3.org/2000/svg" xmlns:xlink="http://www.w3.org/1999/xlink" width="67pt" height="64pt" viewBox="0 0 67 64" version="1.1">
<g id="surface1">
<path style=" stroke:none;fill-rule:nonzero;fill:rgb(39.607843%,75.686275%,83.921569%);fill-opacity:1;" d="M 14.351562 27.792969 C 14.292969 27.792969 14.234375 27.785156 14.175781 27.765625 C 13.828125 27.675781 13.621094 27.332031 13.71875 27 C 16.175781 18.550781 24.308594 12.648438 33.5 12.648438 L 33.910156 12.652344 C 34.269531 12.65625 34.558594 12.945312 34.550781 13.289062 C 34.542969 13.636719 34.242188 13.910156 33.882812 13.902344 L 33.5 13.898438 C 24.894531 13.898438 17.28125 19.421875 14.980469 27.332031 C 14.902344 27.605469 14.644531 27.792969 14.351562 27.792969 Z M 33.5 51.859375 C 33.226562 51.859375 32.949219 51.855469 32.675781 51.84375 C 32.3125 51.828125 32.035156 51.539062 32.046875 51.195312 C 32.0625 50.851562 32.367188 50.582031 32.726562 50.59375 L 33.5 50.609375 C 42.433594 50.609375 50.328125 44.574219 52.261719 36.253906 C 52.339844 35.914062 52.6875 35.703125 53.039062 35.777344 C 53.394531 35.851562 53.617188 36.1875 53.539062 36.523438 C 52.539062 40.808594 50.015625 44.699219 46.429688 47.484375 C 42.789062 50.308594 38.199219 51.859375 33.5 51.859375 Z M 33.5 51.859375 "/>
<path style=" stroke:none;fill-rule:nonzero;fill:rgb(51.764706%,43.529412%,45.882353%);fill-opacity:1;" d="M 21.417969 27.941406 C 13.039062 27.941406 6.222656 34.453125 6.222656 42.457031 C 6.222656 45.257812 7.050781 47.960938 8.625 50.296875 L 6.570312 55.804688 C 6.484375 56.03125 6.546875 56.285156 6.722656 56.453125 C 6.902344 56.625 7.167969 56.683594 7.40625 56.601562 L 13.15625 54.640625 C 15.621094 56.167969 18.46875 56.972656 21.417969 56.972656 C 29.796875 56.972656 36.613281 50.460938 36.613281 42.457031 C 36.613281 34.453125 29.796875 27.941406 21.417969 27.941406 Z M 21.417969 55.726562 C 18.617188 55.726562 15.921875 54.933594 13.613281 53.433594 C 13.503906 53.363281 13.375 53.324219 13.246094 53.324219 C 13.171875 53.324219 13.097656 53.335938 13.027344 53.359375 L 8.265625 54.984375 L 9.96875 50.425781 C 10.039062 50.238281 10.011719 50.03125 9.894531 49.863281 C 8.347656 47.675781 7.523438 45.097656 7.53125 42.457031 C 7.53125 35.140625 13.757812 29.191406 21.417969 29.191406 C 29.078125 29.191406 35.304688 35.140625 35.304688 42.457031 C 35.304688 49.773438 29.078125 55.726562 21.417969 55.726562 Z M 58.375 29.386719 C 59.949219 27.046875 60.777344 24.34375 60.777344 21.542969 C 60.777344 13.539062 53.960938 7.027344 45.582031 7.027344 C 37.203125 7.027344 30.386719 13.539062 30.386719 21.542969 C 30.386719 29.546875 37.203125 36.058594 45.582031 36.058594 C 48.53125 36.058594 51.378906 35.253906 53.84375 33.730469 L 59.59375 35.691406 C 59.832031 35.769531 60.097656 35.710938 60.277344 35.542969 C 60.453125 35.371094 60.515625 35.117188 60.429688 34.890625 Z M 53.976562 32.449219 C 53.777344 32.378906 53.5625 32.40625 53.386719 32.519531 C 51.082031 34.015625 48.382812 34.808594 45.582031 34.808594 C 37.925781 34.808594 31.695312 28.859375 31.695312 21.542969 C 31.695312 14.226562 37.925781 8.277344 45.582031 8.277344 C 53.242188 8.277344 59.472656 14.226562 59.472656 21.542969 C 59.476562 24.183594 58.652344 26.765625 57.105469 28.953125 C 56.992188 29.117188 56.964844 29.324219 57.035156 29.511719 L 58.734375 34.070312 Z M 53.976562 32.449219 "/>
<path style=" stroke:none;fill-rule:nonzero;fill:rgb(39.607843%,75.686275%,83.921569%);fill-opacity:1;" d="M 21.25 52.589844 C 20.601562 52.59375 19.972656 52.34375 19.511719 51.902344 C 19.046875 51.460938 18.789062 50.863281 18.792969 50.238281 C 18.792969 49.625 19.042969 49.03125 19.492188 48.59375 C 19.953125 48.136719 20.589844 47.878906 21.25 47.882812 C 21.910156 47.878906 22.535156 48.128906 23 48.574219 C 23.464844 49.019531 23.722656 49.613281 23.722656 50.238281 C 23.726562 50.875 23.457031 51.484375 22.976562 51.921875 C 22.511719 52.351562 21.902344 52.589844 21.25 52.589844 Z M 21.25 49.132812 C 20.941406 49.128906 20.648438 49.25 20.433594 49.460938 C 20.21875 49.671875 20.101562 49.949219 20.101562 50.238281 C 20.101562 50.53125 20.21875 50.8125 20.433594 51.015625 C 20.65625 51.226562 20.941406 51.339844 21.25 51.339844 C 21.554688 51.339844 21.847656 51.226562 22.066406 51.023438 C 22.289062 50.820312 22.417969 50.535156 22.414062 50.238281 C 22.414062 49.945312 22.292969 49.664062 22.074219 49.457031 C 21.855469 49.25 21.5625 49.128906 21.25 49.128906 Z M 21.472656 46.984375 L 20.957031 46.984375 C 20.4375 46.984375 19.941406 46.78125 19.582031 46.429688 C 19.21875 46.078125 19.015625 45.601562 19.023438 45.109375 C 19.039062 44.15625 19.203125 43.371094 19.527344 42.695312 C 19.84375 42.027344 20.371094 41.371094 21.144531 40.683594 C 21.773438 40.125 22.007812 39.84375 22.09375 39.730469 C 22.203125 39.582031 22.277344 39.4375 22.324219 39.296875 C 22.359375 39.183594 22.402344 38.976562 22.402344 38.621094 C 22.402344 38.21875 22.328125 37.941406 22.179688 37.789062 C 22.132812 37.742188 22.011719 37.617188 21.558594 37.617188 C 21 37.617188 20.839844 37.777344 20.777344 37.835938 C 20.648438 37.96875 20.515625 38.160156 20.507812 38.605469 C 20.492188 39.605469 19.625 40.421875 18.578125 40.421875 L 18.058594 40.421875 C 16.984375 40.417969 16.121094 39.578125 16.125 38.554688 C 16.144531 37.058594 16.683594 35.808594 17.726562 34.851562 C 18.753906 33.910156 20.046875 33.425781 21.558594 33.425781 C 23.113281 33.425781 24.398438 33.929688 25.367188 34.917969 C 26.3125 35.871094 26.785156 37.121094 26.785156 38.628906 C 26.785156 39.621094 26.570312 40.53125 26.148438 41.332031 C 25.746094 42.09375 25.058594 42.890625 24.042969 43.773438 C 24.003906 43.804688 23.96875 43.835938 23.929688 43.863281 C 23.761719 43.988281 23.40625 44.253906 23.40625 45.140625 C 23.40625 46.15625 22.539062 46.984375 21.472656 46.984375 Z M 21.558594 36.363281 C 22.25 36.363281 22.765625 36.550781 23.136719 36.933594 C 23.523438 37.335938 23.710938 37.886719 23.710938 38.617188 C 23.710938 39.027344 23.667969 39.375 23.582031 39.65625 C 23.496094 39.925781 23.355469 40.191406 23.164062 40.449219 C 22.960938 40.726562 22.582031 41.113281 22.039062 41.597656 C 21.398438 42.171875 20.964844 42.699219 20.71875 43.210938 C 20.472656 43.726562 20.347656 44.355469 20.335938 45.128906 C 20.332031 45.289062 20.398438 45.441406 20.511719 45.558594 C 20.632812 45.671875 20.789062 45.734375 20.957031 45.734375 L 21.476562 45.734375 C 21.820312 45.734375 22.097656 45.46875 22.097656 45.140625 C 22.097656 44.132812 22.4375 43.390625 23.128906 42.878906 C 23.136719 42.867188 23.152344 42.859375 23.160156 42.851562 C 24.058594 42.070312 24.652344 41.390625 24.980469 40.773438 C 25.3125 40.144531 25.476562 39.425781 25.476562 38.628906 C 25.476562 37.453125 25.121094 36.492188 24.414062 35.777344 C 23.703125 35.050781 22.742188 34.679688 21.5625 34.679688 C 20.394531 34.679688 19.410156 35.042969 18.632812 35.753906 C 17.855469 36.46875 17.453125 37.417969 17.4375 38.570312 C 17.433594 38.726562 17.5 38.882812 17.617188 38.996094 C 17.734375 39.109375 17.894531 39.171875 18.058594 39.171875 L 18.578125 39.171875 C 18.917969 39.171875 19.195312 38.910156 19.203125 38.585938 C 19.210938 37.914062 19.417969 37.386719 19.839844 36.96875 C 20.246094 36.566406 20.8125 36.367188 21.566406 36.367188 Z M 51.472656 27.175781 L 46.722656 27.175781 C 46.359375 27.175781 46.066406 26.894531 46.066406 26.550781 C 46.066406 26.203125 46.359375 25.925781 46.722656 25.925781 L 51.472656 25.925781 C 51.832031 25.925781 52.125 26.203125 52.125 26.550781 C 52.125 26.894531 51.832031 27.175781 51.472656 27.175781 Z M 43.628906 27.175781 L 37.792969 27.175781 C 37.429688 27.175781 37.136719 26.894531 37.136719 26.550781 C 37.136719 26.203125 37.429688 25.925781 37.792969 25.925781 L 43.628906 25.925781 C 43.988281 25.925781 44.28125 26.203125 44.28125 26.550781 C 44.28125 26.894531 43.988281 27.175781 43.628906 27.175781 Z M 53.371094 22.351562 L 51.078125 22.351562 C 50.71875 22.351562 50.425781 22.070312 50.425781 21.726562 C 50.425781 21.378906 50.71875 21.101562 51.078125 21.101562 L 53.371094 21.101562 C 53.734375 21.101562 54.027344 21.378906 54.027344 21.726562 C 54.027344 22.070312 53.734375 22.351562 53.371094 22.351562 Z M 47.984375 22.351562 L 37.792969 22.351562 C 37.429688 22.351562 37.136719 22.070312 37.136719 21.726562 C 37.136719 21.378906 37.429688 21.101562 37.792969 21.101562 L 47.984375 21.101562 C 48.347656 21.101562 48.640625 21.378906 48.640625 21.726562 C 48.640625 22.070312 48.347656 22.351562 47.984375 22.351562 Z M 51.003906 17.519531 L 37.792969 17.519531 C 37.429688 17.519531 37.136719 17.242188 37.136719 16.894531 C 37.136719 16.550781 37.429688 16.269531 37.792969 16.269531 L 51.003906 16.269531 C 51.363281 16.269531 51.65625 16.550781 51.65625 16.894531 C 51.65625 17.242188 51.363281 17.519531 51.003906 17.519531 Z M 51.003906 17.519531 "/>
</g>
</svg>
