<?xml version="1.0" encoding="UTF-8"?>
<svg xmlns="http://www.w3.org/2000/svg" xmlns:xlink="http://www.w3.org/1999/xlink" width="64pt" height="64pt" viewBox="0 0 64 64" version="1.1">
<g id="surface1">
<path style=" stroke:none;fill-rule:nonzero;fill:rgb(90.196078%,90.588235%,90.980392%);fill-opacity:1;" d="M 45.679688 46.46875 C 45.679688 45.269531 44.707031 44.296875 43.507812 44.296875 L 39.898438 44.296875 L 39.898438 33.324219 L 49.519531 33.324219 C 51.5 33.324219 53.113281 31.714844 53.113281 29.734375 L 53.113281 11.003906 C 53.59375 10.996094 54.039062 10.808594 54.371094 10.472656 C 54.71875 10.132812 54.90625 9.671875 54.90625 9.183594 C 54.90625 8.988281 54.878906 8.796875 54.820312 8.621094 C 54.578125 7.867188 53.878906 7.359375 53.085938 7.359375 L 41.523438 7.359375 C 41.542969 7.300781 41.5625 7.238281 41.5625 7.171875 L 41.5625 6.816406 C 41.5625 6.464844 41.277344 6.179688 40.925781 6.179688 L 37.867188 6.179688 C 37.519531 6.179688 37.234375 6.464844 37.234375 6.816406 L 37.234375 7.171875 C 37.234375 7.238281 37.25 7.300781 37.269531 7.359375 L 25.710938 7.359375 C 25.21875 7.359375 24.761719 7.550781 24.421875 7.890625 C 24.078125 8.234375 23.886719 8.691406 23.886719 9.183594 C 23.886719 9.976562 24.394531 10.675781 25.144531 10.914062 C 25.316406 10.972656 25.496094 11 25.683594 11.003906 L 25.683594 13.234375 C 24.664062 12.433594 23.386719 11.953125 21.996094 11.953125 L 17.066406 11.953125 C 13.773438 11.953125 11.09375 14.632812 11.09375 17.925781 L 11.09375 26.550781 C 11.09375 27.445312 11.71875 28.226562 12.554688 28.371094 C 13.078125 28.460938 13.605469 28.320312 14.007812 27.980469 C 14.410156 27.644531 14.640625 27.148438 14.640625 26.625 L 14.640625 18.09375 C 14.640625 17.980469 14.714844 17.875 14.800781 17.859375 C 14.882812 17.84375 14.933594 17.878906 14.964844 17.90625 C 14.992188 17.925781 15.035156 17.976562 15.035156 18.054688 L 15.035156 39.972656 C 14.414062 39.746094 13.742188 39.613281 13.042969 39.613281 C 9.824219 39.613281 7.207031 42.230469 7.207031 45.449219 C 7.207031 48.667969 9.824219 51.285156 13.042969 51.285156 C 14.957031 51.285156 16.65625 50.355469 17.71875 48.925781 C 18.066406 48.839844 18.390625 48.679688 18.660156 48.4375 C 19.109375 48.027344 19.367188 47.441406 19.367188 46.832031 L 19.367188 30.117188 C 19.367188 29.988281 19.4375 29.871094 19.53125 29.820312 C 19.625 29.871094 19.695312 29.992188 19.695312 30.117188 L 19.695312 46.832031 C 19.695312 47.441406 19.953125 48.027344 20.40625 48.4375 C 20.804688 48.800781 21.328125 49 21.867188 49 C 21.933594 49 22.003906 48.996094 22.070312 48.988281 C 23.167969 48.882812 24.027344 47.90625 24.027344 46.761719 L 24.027344 18.054688 C 24.027344 17.976562 24.070312 17.925781 24.097656 17.90625 C 24.128906 17.878906 24.183594 17.847656 24.261719 17.859375 C 24.351562 17.875 24.421875 17.980469 24.421875 18.09375 L 24.421875 22.238281 C 24.421875 22.714844 24.609375 23.164062 24.949219 23.496094 C 25.160156 23.703125 25.410156 23.84375 25.683594 23.925781 L 25.683594 29.734375 C 25.683594 31.714844 27.292969 33.324219 29.273438 33.324219 L 38.898438 33.324219 L 38.898438 44.296875 L 38.808594 44.296875 C 38.269531 41.628906 35.910156 39.613281 33.089844 39.613281 C 29.871094 39.613281 27.253906 42.234375 27.253906 45.449219 C 27.253906 48.667969 29.871094 51.285156 33.089844 51.285156 C 35.78125 51.285156 38.046875 49.453125 38.71875 46.96875 L 45.183594 46.96875 C 45.457031 46.96875 45.679688 46.746094 45.679688 46.46875 Z M 45.679688 46.46875 "/>
<path style=" stroke:none;fill-rule:nonzero;fill:rgb(90.196078%,90.588235%,90.980392%);fill-opacity:1;" d="M 19.449219 11.796875 C 21.621094 11.796875 23.386719 10.03125 23.386719 7.859375 C 23.386719 5.6875 21.621094 3.921875 19.449219 3.921875 C 17.277344 3.921875 15.511719 5.6875 15.511719 7.859375 C 15.511719 10.03125 17.277344 11.796875 19.449219 11.796875 Z M 19.449219 11.796875 "/>
<path style=" stroke:none;fill-rule:nonzero;fill:rgb(90.196078%,90.588235%,90.980392%);fill-opacity:1;" d="M 13.042969 52.089844 C 8.855469 52.089844 5.449219 55.496094 5.449219 59.683594 L 5.449219 61.578125 C 5.449219 61.855469 5.671875 62.078125 5.949219 62.078125 L 20.136719 62.078125 C 20.410156 62.078125 20.636719 61.855469 20.636719 61.578125 L 20.636719 59.683594 C 20.636719 55.496094 17.230469 52.089844 13.042969 52.089844 Z M 13.042969 52.089844 "/>
<path style=" stroke:none;fill-rule:nonzero;fill:rgb(90.196078%,90.588235%,90.980392%);fill-opacity:1;" d="M 33.085938 52.089844 C 28.898438 52.089844 25.492188 55.496094 25.492188 59.683594 L 25.492188 61.578125 C 25.492188 61.855469 25.71875 62.078125 25.992188 62.078125 L 40.179688 62.078125 C 40.457031 62.078125 40.679688 61.855469 40.679688 61.578125 L 40.679688 59.683594 C 40.679688 55.496094 37.273438 52.089844 33.085938 52.089844 Z M 33.085938 52.089844 "/>
<path style=" stroke:none;fill-rule:nonzero;fill:rgb(90.196078%,90.588235%,90.980392%);fill-opacity:1;" d="M 47.121094 45.449219 C 47.121094 48.667969 49.738281 51.285156 52.957031 51.285156 C 56.175781 51.285156 58.792969 48.667969 58.792969 45.449219 C 58.792969 42.230469 56.175781 39.613281 52.957031 39.613281 C 49.738281 39.613281 47.121094 42.234375 47.121094 45.449219 Z M 47.121094 45.449219 "/>
<path style=" stroke:none;fill-rule:nonzero;fill:rgb(90.196078%,90.588235%,90.980392%);fill-opacity:1;" d="M 52.957031 52.089844 C 48.769531 52.089844 45.363281 55.496094 45.363281 59.683594 L 45.363281 61.578125 C 45.363281 61.855469 45.585938 62.078125 45.863281 62.078125 L 60.050781 62.078125 C 60.328125 62.078125 60.550781 61.855469 60.550781 61.578125 L 60.550781 59.683594 C 60.550781 55.496094 57.144531 52.089844 52.957031 52.089844 Z M 52.957031 52.089844 "/>
<path style=" stroke:none;fill-rule:nonzero;fill:rgb(100%,84.313725%,89.803922%);fill-opacity:1;" d="M 24.214844 8.503906 L 24.183594 27.734375 C 24.183594 29.441406 25.566406 30.824219 27.273438 30.824219 L 47.523438 30.824219 C 49.226562 30.824219 50.613281 29.441406 50.613281 27.734375 L 50.644531 8.503906 Z M 24.214844 8.503906 "/>
<path style=" stroke:none;fill-rule:nonzero;fill:rgb(100%,100%,100%);fill-opacity:1;" d="M 25.683594 27.734375 L 25.714844 8.503906 L 24.214844 8.503906 L 24.183594 27.734375 C 24.183594 29.441406 25.566406 30.824219 27.273438 30.824219 L 28.773438 30.824219 C 27.066406 30.824219 25.683594 29.441406 25.683594 27.734375 Z M 25.683594 27.734375 "/>
<path style=" stroke:none;fill-rule:nonzero;fill:rgb(98.039216%,45.882353%,61.960784%);fill-opacity:1;" d="M 52.410156 7.179688 C 52.410156 7.546875 52.261719 7.878906 52.019531 8.117188 C 51.78125 8.355469 51.449219 8.503906 51.085938 8.503906 L 23.710938 8.503906 C 22.976562 8.503906 22.386719 7.910156 22.386719 7.179688 C 22.386719 6.816406 22.535156 6.484375 22.773438 6.246094 C 23.011719 6.003906 23.34375 5.859375 23.710938 5.859375 L 51.085938 5.859375 C 51.816406 5.859375 52.410156 6.449219 52.410156 7.179688 Z M 52.410156 7.179688 "/>
<path style=" stroke:none;fill-rule:nonzero;fill:rgb(98.039216%,45.882353%,61.960784%);fill-opacity:1;" d="M 36.421875 43.449219 C 36.421875 43.800781 36.386719 44.140625 36.324219 44.46875 L 43.179688 44.46875 C 43.179688 43.542969 42.433594 42.796875 41.507812 42.796875 L 36.378906 42.796875 C 36.40625 43.011719 36.421875 43.226562 36.421875 43.449219 Z M 36.421875 43.449219 "/>
<path style=" stroke:none;fill-rule:nonzero;fill:rgb(0%,53.72549%,93.72549%);fill-opacity:1;" d="M 44.074219 20.4375 L 44.074219 18.597656 C 44.074219 18.4375 43.945312 18.3125 43.789062 18.3125 L 42.824219 18.3125 C 42.699219 18.3125 42.585938 18.230469 42.550781 18.113281 C 42.453125 17.78125 42.320312 17.464844 42.160156 17.167969 C 42.101562 17.058594 42.121094 16.921875 42.210938 16.832031 L 42.894531 16.152344 C 43.003906 16.039062 43.003906 15.859375 42.894531 15.75 L 41.589844 14.445312 C 41.480469 14.335938 41.300781 14.335938 41.1875 14.445312 L 40.507812 15.128906 C 40.417969 15.21875 40.28125 15.238281 40.171875 15.179688 C 39.875 15.015625 39.558594 14.886719 39.226562 14.789062 C 39.109375 14.753906 39.027344 14.640625 39.027344 14.515625 L 39.027344 13.550781 C 39.027344 13.394531 38.902344 13.265625 38.742188 13.265625 L 36.902344 13.265625 C 36.746094 13.265625 36.617188 13.394531 36.617188 13.550781 L 36.617188 14.515625 C 36.617188 14.640625 36.535156 14.753906 36.417969 14.789062 C 36.085938 14.886719 35.769531 15.015625 35.472656 15.179688 C 35.363281 15.238281 35.226562 15.21875 35.140625 15.128906 L 34.457031 14.445312 C 34.34375 14.335938 34.164062 14.335938 34.054688 14.445312 L 32.75 15.75 C 32.640625 15.859375 32.640625 16.039062 32.75 16.152344 L 33.433594 16.832031 C 33.523438 16.921875 33.542969 17.058594 33.484375 17.167969 C 33.324219 17.464844 33.191406 17.78125 33.09375 18.113281 C 33.058594 18.230469 32.945312 18.3125 32.820312 18.3125 L 31.855469 18.3125 C 31.699219 18.3125 31.574219 18.4375 31.574219 18.597656 L 31.574219 20.4375 C 31.574219 20.59375 31.699219 20.722656 31.855469 20.722656 L 32.820312 20.722656 C 32.945312 20.722656 33.058594 20.800781 33.09375 20.921875 C 33.191406 21.253906 33.324219 21.570312 33.484375 21.867188 C 33.542969 21.976562 33.523438 22.113281 33.433594 22.199219 L 32.75 22.882812 C 32.640625 22.996094 32.640625 23.175781 32.75 23.285156 L 34.054688 24.589844 C 34.164062 24.699219 34.34375 24.699219 34.457031 24.589844 L 35.140625 23.90625 C 35.226562 23.816406 35.363281 23.796875 35.472656 23.855469 C 35.769531 24.015625 36.085938 24.148438 36.417969 24.246094 C 36.535156 24.28125 36.617188 24.394531 36.617188 24.515625 L 36.617188 25.484375 C 36.617188 25.640625 36.746094 25.765625 36.902344 25.765625 L 38.742188 25.765625 C 38.902344 25.765625 39.027344 25.640625 39.027344 25.484375 L 39.027344 24.515625 C 39.027344 24.394531 39.109375 24.28125 39.226562 24.246094 C 39.558594 24.148438 39.875 24.015625 40.171875 23.855469 C 40.28125 23.796875 40.417969 23.816406 40.507812 23.90625 L 41.1875 24.589844 C 41.300781 24.699219 41.480469 24.699219 41.589844 24.589844 L 42.894531 23.285156 C 43.003906 23.175781 43.003906 22.996094 42.894531 22.882812 L 42.210938 22.199219 C 42.121094 22.113281 42.101562 21.976562 42.160156 21.867188 C 42.320312 21.570312 42.453125 21.253906 42.550781 20.921875 C 42.585938 20.800781 42.699219 20.722656 42.824219 20.722656 L 43.789062 20.722656 C 43.945312 20.722656 44.074219 20.59375 44.074219 20.4375 Z M 39.527344 20.246094 C 39.445312 20.445312 39.332031 20.628906 39.1875 20.785156 C 38.652344 21.355469 37.742188 21.535156 37.03125 21.207031 C 36.324219 20.878906 35.871094 20.066406 35.964844 19.289062 C 36.058594 18.519531 36.679688 17.839844 37.441406 17.683594 C 38.214844 17.523438 39.066406 17.917969 39.449219 18.605469 C 39.726562 19.101562 39.742188 19.722656 39.527344 20.246094 Z M 39.527344 20.246094 "/>
<path style=" stroke:none;fill-rule:nonzero;fill:rgb(42.745098%,78.823529%,96.862745%);fill-opacity:1;" d="M 20.886719 5.859375 C 20.886719 7.757812 19.347656 9.296875 17.449219 9.296875 C 15.550781 9.296875 14.011719 7.757812 14.011719 5.859375 C 14.011719 3.960938 15.550781 2.421875 17.449219 2.421875 C 19.347656 2.421875 20.886719 3.960938 20.886719 5.859375 Z M 20.886719 5.859375 "/>
<path style=" stroke:none;fill-rule:nonzero;fill:rgb(42.745098%,78.823529%,96.862745%);fill-opacity:1;" d="M 28.765625 18.808594 L 25.46875 18.808594 L 25.46875 15.925781 C 25.46875 12.90625 23.019531 10.453125 19.996094 10.453125 C 19.46875 10.453125 15.59375 10.453125 15.066406 10.453125 C 12.042969 10.453125 9.589844 12.902344 9.589844 15.925781 L 9.589844 24.550781 C 9.589844 25.183594 10.015625 25.769531 10.636719 25.878906 C 11.441406 26.019531 12.140625 25.402344 12.140625 24.625 L 12.140625 16.09375 C 12.140625 15.746094 12.378906 15.421875 12.722656 15.367188 C 13.15625 15.296875 13.535156 15.632812 13.535156 16.054688 L 13.535156 38.734375 C 15.226562 39.628906 16.378906 41.402344 16.378906 43.449219 C 16.378906 44.574219 16.027344 45.621094 15.429688 46.480469 C 16.242188 46.367188 16.867188 45.675781 16.867188 44.832031 L 16.867188 28.117188 C 16.867188 27.726562 17.132812 27.367188 17.519531 27.304688 C 17.527344 27.300781 17.535156 27.300781 17.542969 27.304688 C 17.925781 27.367188 18.195312 27.726562 18.195312 28.117188 L 18.195312 44.832031 C 18.195312 45.808594 19.03125 46.585938 20.023438 46.492188 C 20.890625 46.410156 21.527344 45.632812 21.527344 44.761719 L 21.527344 16.054688 C 21.527344 15.632812 21.902344 15.296875 22.339844 15.367188 C 22.683594 15.421875 22.921875 15.746094 22.921875 16.09375 L 22.921875 20.238281 C 22.921875 20.953125 23.507812 21.519531 24.222656 21.507812 L 24.226562 21.511719 L 28.839844 21.511719 C 29.613281 21.511719 30.234375 20.867188 30.191406 20.089844 C 30.152344 19.355469 29.496094 18.808594 28.765625 18.808594 Z M 28.765625 18.808594 "/>
<path style=" stroke:none;fill-rule:nonzero;fill:rgb(42.745098%,78.823529%,96.862745%);fill-opacity:1;" d="M 16.378906 43.449219 C 16.378906 46.398438 13.988281 48.785156 11.042969 48.785156 C 8.09375 48.785156 5.707031 46.398438 5.707031 43.449219 C 5.707031 40.503906 8.09375 38.113281 11.042969 38.113281 C 13.988281 38.113281 16.378906 40.503906 16.378906 43.449219 Z M 16.378906 43.449219 "/>
<path style=" stroke:none;fill-rule:nonzero;fill:rgb(42.745098%,78.823529%,96.862745%);fill-opacity:1;" d="M 11.042969 50.589844 C 7.125 50.589844 3.949219 53.765625 3.949219 57.683594 L 3.949219 59.578125 L 18.136719 59.578125 L 18.136719 57.683594 C 18.136719 53.765625 14.960938 50.589844 11.042969 50.589844 Z M 11.042969 50.589844 "/>
<path style=" stroke:none;fill-rule:nonzero;fill:rgb(42.745098%,78.823529%,96.862745%);fill-opacity:1;" d="M 31.625 38.167969 C 28.691406 37.875 26.078125 40.015625 25.785156 42.945312 C 25.496094 45.878906 27.636719 48.492188 30.566406 48.785156 C 33.5 49.074219 36.113281 46.933594 36.40625 44.003906 C 36.695312 41.070312 34.554688 38.457031 31.625 38.167969 Z M 31.625 38.167969 "/>
<path style=" stroke:none;fill-rule:nonzero;fill:rgb(42.745098%,78.823529%,96.862745%);fill-opacity:1;" d="M 31.085938 50.589844 C 27.167969 50.589844 23.992188 53.765625 23.992188 57.683594 L 23.992188 59.578125 L 38.179688 59.578125 L 38.179688 57.683594 C 38.179688 53.765625 35.003906 50.589844 31.085938 50.589844 Z M 31.085938 50.589844 "/>
<path style=" stroke:none;fill-rule:nonzero;fill:rgb(42.745098%,78.823529%,96.862745%);fill-opacity:1;" d="M 56.3125 43.089844 C 56.105469 40.148438 53.550781 37.933594 50.609375 38.140625 C 47.667969 38.351562 45.453125 40.90625 45.664062 43.847656 C 45.875 46.785156 48.425781 49 51.367188 48.792969 C 54.308594 48.582031 56.523438 46.027344 56.3125 43.089844 Z M 56.3125 43.089844 "/>
<path style=" stroke:none;fill-rule:nonzero;fill:rgb(42.745098%,78.823529%,96.862745%);fill-opacity:1;" d="M 50.957031 50.589844 C 47.039062 50.589844 43.863281 53.765625 43.863281 57.683594 L 43.863281 59.578125 L 58.050781 59.578125 L 58.050781 57.683594 C 58.050781 53.765625 54.875 50.589844 50.957031 50.589844 Z M 50.957031 50.589844 "/>
<path style=" stroke:none;fill-rule:nonzero;fill:rgb(22.745098%,17.254902%,37.647059%);fill-opacity:1;" d="M 37.820312 8.003906 L 34.617188 8.003906 C 34.339844 8.003906 34.117188 8.230469 34.117188 8.503906 C 34.117188 8.78125 34.339844 9.003906 34.617188 9.003906 L 37.820312 9.003906 C 38.097656 9.003906 38.320312 8.78125 38.320312 8.503906 C 38.320312 8.230469 38.097656 8.003906 37.820312 8.003906 Z M 37.820312 8.003906 "/>
<path style=" stroke:none;fill-rule:nonzero;fill:rgb(22.745098%,17.254902%,37.647059%);fill-opacity:1;" d="M 43.679688 44.46875 C 43.679688 43.269531 42.707031 42.296875 41.507812 42.296875 L 37.898438 42.296875 L 37.898438 31.324219 L 47.519531 31.324219 C 49.5 31.324219 51.113281 29.714844 51.113281 27.734375 L 51.140625 9 C 51.609375 8.984375 52.046875 8.800781 52.371094 8.472656 C 52.71875 8.132812 52.90625 7.671875 52.90625 7.183594 C 52.90625 6.988281 52.878906 6.796875 52.820312 6.621094 C 52.578125 5.867188 51.878906 5.359375 51.085938 5.359375 L 39.535156 5.359375 C 39.542969 5.316406 39.5625 5.273438 39.5625 5.222656 L 39.5625 4.863281 C 39.5625 4.515625 39.277344 4.230469 38.925781 4.230469 L 35.867188 4.230469 C 35.519531 4.230469 35.234375 4.515625 35.234375 4.863281 L 35.234375 5.222656 C 35.234375 5.273438 35.25 5.316406 35.261719 5.359375 L 23.710938 5.359375 C 23.21875 5.359375 22.761719 5.550781 22.421875 5.890625 C 22.078125 6.234375 21.886719 6.691406 21.886719 7.183594 C 21.886719 7.976562 22.394531 8.671875 23.144531 8.914062 C 23.324219 8.972656 23.515625 9.003906 23.710938 9.003906 L 23.714844 9.003906 L 23.710938 11.257812 C 22.6875 10.441406 21.398438 9.953125 19.996094 9.953125 L 15.066406 9.953125 C 11.773438 9.953125 9.09375 12.632812 9.09375 15.925781 L 9.09375 24.550781 C 9.09375 25.445312 9.71875 26.226562 10.554688 26.371094 C 11.078125 26.460938 11.605469 26.320312 12.007812 25.980469 C 12.410156 25.644531 12.640625 25.148438 12.640625 24.625 L 12.640625 16.09375 C 12.640625 15.980469 12.714844 15.875 12.800781 15.859375 C 12.878906 15.847656 12.933594 15.878906 12.964844 15.90625 C 12.992188 15.925781 13.035156 15.976562 13.035156 16.054688 L 13.035156 37.972656 C 12.414062 37.746094 11.742188 37.613281 11.042969 37.613281 C 7.824219 37.613281 5.207031 40.234375 5.207031 43.449219 C 5.207031 46.667969 7.824219 49.285156 11.042969 49.285156 C 12.957031 49.285156 14.652344 48.355469 15.71875 46.929688 C 16.066406 46.84375 16.390625 46.679688 16.660156 46.4375 C 17.109375 46.027344 17.367188 45.441406 17.367188 44.835938 L 17.367188 28.117188 C 17.367188 27.988281 17.4375 27.871094 17.53125 27.820312 C 17.625 27.871094 17.695312 27.988281 17.695312 28.117188 L 17.695312 44.835938 C 17.695312 45.441406 17.953125 46.027344 18.402344 46.4375 C 18.855469 46.847656 19.460938 47.050781 20.070312 46.988281 C 21.167969 46.882812 22.027344 45.90625 22.027344 44.761719 L 22.027344 16.054688 C 22.027344 15.976562 22.070312 15.925781 22.097656 15.90625 C 22.128906 15.878906 22.183594 15.847656 22.261719 15.859375 C 22.347656 15.875 22.421875 15.980469 22.421875 16.09375 L 22.421875 20.238281 C 22.421875 20.714844 22.609375 21.164062 22.949219 21.5 C 23.160156 21.703125 23.417969 21.847656 23.691406 21.925781 L 23.683594 27.734375 C 23.683594 29.714844 25.292969 31.324219 27.273438 31.324219 L 36.898438 31.324219 L 36.898438 42.296875 L 36.808594 42.296875 C 36.269531 39.628906 33.910156 37.613281 31.089844 37.613281 C 27.871094 37.613281 25.253906 40.234375 25.253906 43.449219 C 25.253906 46.667969 27.871094 49.285156 31.089844 49.285156 C 33.78125 49.285156 36.046875 47.453125 36.714844 44.96875 L 43.183594 44.96875 C 43.457031 44.96875 43.679688 44.746094 43.679688 44.46875 Z M 11.042969 48.285156 C 8.375 48.285156 6.207031 46.117188 6.207031 43.449219 C 6.207031 40.785156 8.375 38.613281 11.042969 38.613281 C 13.707031 38.613281 15.878906 40.785156 15.878906 43.449219 C 15.878906 46.117188 13.707031 48.285156 11.042969 48.285156 Z M 23.421875 20.238281 L 23.421875 16.09375 C 23.421875 15.492188 22.992188 14.96875 22.421875 14.875 C 22.070312 14.820312 21.714844 14.914062 21.449219 15.144531 C 21.179688 15.371094 21.027344 15.703125 21.027344 16.054688 L 21.027344 44.761719 C 21.027344 45.398438 20.566406 45.9375 19.976562 45.996094 C 19.640625 46.023438 19.320312 45.921875 19.074219 45.695312 C 18.832031 45.476562 18.695312 45.160156 18.695312 44.832031 L 18.695312 28.117188 C 18.695312 27.472656 18.234375 26.910156 17.617188 26.808594 C 17.566406 26.800781 17.488281 26.800781 17.4375 26.808594 C 16.828125 26.910156 16.367188 27.472656 16.367188 28.117188 L 16.367188 41.074219 C 15.875 39.976562 15.058594 39.0625 14.035156 38.449219 L 14.035156 16.054688 C 14.035156 15.703125 13.882812 15.371094 13.613281 15.144531 C 13.394531 14.957031 13.121094 14.859375 12.835938 14.859375 C 12.769531 14.859375 12.703125 14.863281 12.640625 14.875 C 12.070312 14.96875 11.640625 15.492188 11.640625 16.09375 L 11.640625 24.625 C 11.640625 24.851562 11.539062 25.070312 11.363281 25.21875 C 11.1875 25.367188 10.957031 25.425781 10.722656 25.386719 C 10.363281 25.324219 10.089844 24.964844 10.089844 24.550781 L 10.089844 15.929688 C 10.089844 13.183594 12.320312 10.953125 15.066406 10.953125 L 19.996094 10.953125 C 22.738281 10.953125 24.96875 13.183594 24.96875 15.929688 L 24.96875 18.808594 C 24.96875 19.085938 25.191406 19.308594 25.46875 19.308594 L 28.839844 19.308594 C 29.074219 19.308594 29.296875 19.402344 29.457031 19.574219 C 29.621094 19.746094 29.703125 19.96875 29.691406 20.207031 C 29.667969 20.652344 29.25 21.011719 28.761719 21.011719 L 24.304688 21.011719 C 24.273438 21.007812 24.242188 21.003906 24.210938 21.003906 C 24 21.007812 23.796875 20.929688 23.648438 20.785156 C 23.5 20.640625 23.421875 20.445312 23.421875 20.238281 Z M 24.683594 27.734375 L 24.691406 22.011719 L 28.765625 22.011719 C 29.792969 22.011719 30.640625 21.242188 30.691406 20.257812 C 30.699219 20.105469 30.683594 19.953125 30.65625 19.808594 L 38.105469 14.671875 C 38.332031 14.515625 38.390625 14.203125 38.234375 13.976562 C 38.078125 13.75 37.765625 13.691406 37.539062 13.847656 L 30.199219 18.90625 C 30.195312 18.898438 30.191406 18.890625 30.183594 18.882812 C 29.835938 18.515625 29.347656 18.308594 28.839844 18.308594 L 25.96875 18.308594 L 25.96875 15.925781 C 25.96875 14.546875 25.496094 13.28125 24.707031 12.265625 L 24.714844 9.003906 L 31.855469 9.003906 C 32.132812 9.003906 32.355469 8.78125 32.355469 8.503906 C 32.355469 8.226562 32.132812 8.003906 31.855469 8.003906 L 23.710938 8.003906 C 23.625 8.003906 23.539062 7.992188 23.453125 7.964844 C 23.113281 7.855469 22.886719 7.539062 22.886719 7.183594 C 22.886719 6.960938 22.972656 6.753906 23.128906 6.597656 C 23.28125 6.445312 23.488281 6.359375 23.707031 6.359375 L 51.085938 6.359375 C 51.445312 6.359375 51.757812 6.585938 51.867188 6.933594 C 51.894531 7.011719 51.90625 7.097656 51.90625 7.183594 C 51.90625 7.402344 51.824219 7.609375 51.664062 7.765625 C 51.511719 7.921875 51.304688 8.003906 51.085938 8.003906 L 40.734375 8.003906 C 40.457031 8.003906 40.234375 8.226562 40.234375 8.503906 C 40.234375 8.78125 40.457031 9.003906 40.734375 9.003906 L 50.144531 9.003906 L 50.113281 27.734375 C 50.113281 29.160156 48.949219 30.324219 47.523438 30.324219 L 27.273438 30.324219 C 25.84375 30.324219 24.683594 29.164062 24.683594 27.734375 Z M 31.085938 48.285156 C 28.421875 48.285156 26.25 46.117188 26.25 43.449219 C 26.25 40.785156 28.421875 38.613281 31.085938 38.613281 C 33.753906 38.613281 35.921875 40.785156 35.921875 43.449219 C 35.921875 46.117188 33.753906 48.285156 31.085938 48.285156 Z M 36.898438 43.96875 C 36.910156 43.796875 36.921875 43.625 36.921875 43.449219 C 36.921875 43.398438 36.917969 43.347656 36.914062 43.296875 L 41.507812 43.296875 C 41.976562 43.296875 42.382812 43.570312 42.570312 43.96875 Z M 36.898438 43.96875 "/>
<path style=" stroke:none;fill-rule:nonzero;fill:rgb(22.745098%,17.254902%,37.647059%);fill-opacity:1;" d="M 17.449219 9.796875 C 19.621094 9.796875 21.386719 8.03125 21.386719 5.859375 C 21.386719 3.6875 19.621094 1.921875 17.449219 1.921875 C 15.277344 1.921875 13.511719 3.6875 13.511719 5.859375 C 13.511719 8.03125 15.277344 9.796875 17.449219 9.796875 Z M 17.449219 2.921875 C 19.066406 2.921875 20.386719 4.238281 20.386719 5.859375 C 20.386719 7.476562 19.066406 8.796875 17.449219 8.796875 C 15.828125 8.796875 14.511719 7.476562 14.511719 5.859375 C 14.511719 4.238281 15.828125 2.921875 17.449219 2.921875 Z M 17.449219 2.921875 "/>
<path style=" stroke:none;fill-rule:nonzero;fill:rgb(22.745098%,17.254902%,37.647059%);fill-opacity:1;" d="M 11.042969 50.089844 C 6.855469 50.089844 3.449219 53.496094 3.449219 57.683594 L 3.449219 59.578125 C 3.449219 59.855469 3.671875 60.078125 3.949219 60.078125 L 18.136719 60.078125 C 18.414062 60.078125 18.636719 59.855469 18.636719 59.578125 L 18.636719 57.683594 C 18.636719 53.496094 15.230469 50.089844 11.042969 50.089844 Z M 17.636719 59.078125 L 4.449219 59.078125 L 4.449219 57.683594 C 4.449219 54.046875 7.40625 51.089844 11.042969 51.089844 C 14.679688 51.089844 17.636719 54.046875 17.636719 57.683594 Z M 17.636719 59.078125 "/>
<path style=" stroke:none;fill-rule:nonzero;fill:rgb(22.745098%,17.254902%,37.647059%);fill-opacity:1;" d="M 31.085938 50.089844 C 26.898438 50.089844 23.492188 53.496094 23.492188 57.683594 L 23.492188 59.578125 C 23.492188 59.855469 23.71875 60.078125 23.992188 60.078125 L 38.179688 60.078125 C 38.457031 60.078125 38.679688 59.855469 38.679688 59.578125 L 38.679688 57.683594 C 38.679688 53.496094 35.273438 50.089844 31.085938 50.089844 Z M 37.679688 59.078125 L 24.492188 59.078125 L 24.492188 57.683594 C 24.492188 54.046875 27.449219 51.089844 31.085938 51.089844 C 34.722656 51.089844 37.679688 54.046875 37.679688 57.683594 Z M 37.679688 59.078125 "/>
<path style=" stroke:none;fill-rule:nonzero;fill:rgb(22.745098%,17.254902%,37.647059%);fill-opacity:1;" d="M 45.121094 43.449219 C 45.121094 46.667969 47.738281 49.285156 50.957031 49.285156 C 54.175781 49.285156 56.792969 46.667969 56.792969 43.449219 C 56.792969 40.234375 54.175781 37.613281 50.957031 37.613281 C 47.738281 37.613281 45.121094 40.234375 45.121094 43.449219 Z M 55.792969 43.449219 C 55.792969 46.117188 53.625 48.285156 50.957031 48.285156 C 48.292969 48.285156 46.121094 46.117188 46.121094 43.449219 C 46.121094 40.785156 48.292969 38.613281 50.957031 38.613281 C 53.625 38.613281 55.792969 40.785156 55.792969 43.449219 Z M 55.792969 43.449219 "/>
<path style=" stroke:none;fill-rule:nonzero;fill:rgb(22.745098%,17.254902%,37.647059%);fill-opacity:1;" d="M 50.957031 50.089844 C 46.769531 50.089844 43.363281 53.496094 43.363281 57.683594 L 43.363281 59.578125 C 43.363281 59.855469 43.585938 60.078125 43.863281 60.078125 L 58.050781 60.078125 C 58.328125 60.078125 58.550781 59.855469 58.550781 59.578125 L 58.550781 57.683594 C 58.550781 53.496094 55.144531 50.089844 50.957031 50.089844 Z M 57.550781 59.078125 L 44.363281 59.078125 L 44.363281 57.683594 C 44.363281 54.046875 47.320312 51.089844 50.957031 51.089844 C 54.59375 51.089844 57.550781 54.046875 57.550781 57.683594 Z M 57.550781 59.078125 "/>
</g>
</svg>
